<svg width="26" height="23" viewBox="0 0 26 23" fill="none" xmlns="http://www.w3.org/2000/svg">
<path d="M18.9559 0C17.7365 0.0189669 16.5437 0.359363 15.498 0.986812C14.4522 1.61426 13.5906 2.50655 13 3.57356C12.4094 2.50655 11.5478 1.61426 10.502 0.986812C9.45627 0.359363 8.26346 0.0189669 7.04407 0C5.10021 0.0844559 3.26877 0.934815 1.94989 2.3653C0.631004 3.79578 -0.0681244 5.69011 0.00524241 7.63442C0.00524241 12.5584 5.18798 17.936 9.53473 21.5821C10.5052 22.3977 11.7323 22.8448 13 22.8448C14.2677 22.8448 15.4948 22.3977 16.4653 21.5821C20.812 17.936 25.9948 12.5584 25.9948 7.63442C26.0681 5.69011 25.369 3.79578 24.0501 2.3653C22.7312 0.934815 20.8998 0.0844559 18.9559 0Z" fill="#B718B0"/>
<path d="M18.9559 0C17.7365 0.0189669 16.5437 0.359363 15.498 0.986812C14.4522 1.61426 13.5906 2.50655 13 3.57356C12.4094 2.50655 11.5478 1.61426 10.502 0.986812C9.45627 0.359363 8.26346 0.0189669 7.04407 0C5.10021 0.0844559 3.26877 0.934815 1.94989 2.3653C0.631004 3.79578 -0.0681244 5.69011 0.00524241 7.63442C0.00524241 12.5584 5.18798 17.936 9.53473 21.5821C10.5052 22.3977 11.7323 22.8448 13 22.8448C14.2677 22.8448 15.4948 22.3977 16.4653 21.5821C20.812 17.936 25.9948 12.5584 25.9948 7.63442C26.0681 5.69011 25.369 3.79578 24.0501 2.3653C22.7312 0.934815 20.8998 0.0844559 18.9559 0Z" fill="url(#paint0_linear_243_10229)" fill-opacity="0.4"/>
<defs>
<linearGradient id="paint0_linear_243_10229" x1="28.0968" y1="-1.78475" x2="15.8941" y2="31.7319" gradientUnits="userSpaceOnUse">
<stop offset="0.161218" stop-color="#6B3434"/>
<stop offset="1" stop-color="#FF0505"/>
</linearGradient>
</defs>
</svg>
