<svg width="24" height="17" viewBox="0 0 24 17" fill="none" xmlns="http://www.w3.org/2000/svg">
<g clip-path="url(#clip0_195_36901)">
<path d="M8.47065 8.49995C9.30831 8.49995 10.1272 8.25155 10.8237 7.78617C11.5201 7.32079 12.063 6.65933 12.3835 5.88543C12.7041 5.11153 12.788 4.25996 12.6246 3.43839C12.4611 2.61682 12.0578 1.86217 11.4655 1.26985C10.8731 0.677532 10.1185 0.27416 9.29691 0.11074C8.47534 -0.05268 7.62377 0.031193 6.84987 0.351752C6.07597 0.672312 5.41451 1.21516 4.94913 1.91165C4.48375 2.60814 4.23535 3.42699 4.23535 4.26465C4.23647 5.38758 4.68305 6.46419 5.47708 7.25822C6.27111 8.05225 7.34772 8.49883 8.47065 8.49995ZM8.47065 1.44112C9.02909 1.44112 9.57499 1.60672 10.0393 1.91698C10.5036 2.22723 10.8655 2.6682 11.0792 3.18414C11.293 3.70007 11.3489 4.26779 11.2399 4.8155C11.131 5.36321 10.8621 5.86631 10.4672 6.26119C10.0723 6.65607 9.5692 6.92498 9.02149 7.03393C8.47378 7.14288 7.90606 7.08696 7.39013 6.87326C6.8742 6.65955 6.43322 6.29765 6.12297 5.83332C5.81271 5.369 5.64712 4.8231 5.64712 4.26465C5.64712 3.51581 5.94459 2.79763 6.47411 2.26812C7.00362 1.7386 7.7218 1.44112 8.47065 1.44112Z" fill="black"/>
<path d="M8.47062 9.91223C6.78629 9.9141 5.17148 10.584 3.98047 11.775C2.78947 12.966 2.11954 14.5808 2.11768 16.2652C2.11768 16.4524 2.19205 16.6319 2.32442 16.7643C2.4568 16.8967 2.63635 16.9711 2.82356 16.9711C3.01077 16.9711 3.19031 16.8967 3.32269 16.7643C3.45507 16.6319 3.52944 16.4524 3.52944 16.2652C3.52944 14.9547 4.05003 13.6979 4.97668 12.7712C5.90333 11.8446 7.16014 11.324 8.47062 11.324C9.7811 11.324 11.0379 11.8446 11.9646 12.7712C12.8912 13.6979 13.4118 14.9547 13.4118 16.2652C13.4118 16.4524 13.4862 16.6319 13.6185 16.7643C13.7509 16.8967 13.9305 16.9711 14.1177 16.9711C14.3049 16.9711 14.4844 16.8967 14.6168 16.7643C14.7492 16.6319 14.8236 16.4524 14.8236 16.2652C14.8217 14.5808 14.1518 12.966 12.9608 11.775C11.7698 10.584 10.1549 9.9141 8.47062 9.91223Z" fill="black"/>
</g>
<g clip-path="url(#clip1_195_36901)">
<path d="M16.941 8.49993C17.6391 8.49993 18.3215 8.29293 18.9019 7.90511C19.4823 7.5173 19.9347 6.96608 20.2018 6.32116C20.4689 5.67625 20.5388 4.9666 20.4026 4.28196C20.2664 3.59732 19.9303 2.96844 19.4367 2.47484C18.9431 1.98125 18.3142 1.6451 17.6296 1.50892C16.9449 1.37274 16.2353 1.44263 15.5904 1.70976C14.9455 1.9769 14.3943 2.42927 14.0064 3.00968C13.6186 3.59009 13.4116 4.27246 13.4116 4.97051C13.4126 5.90629 13.7847 6.80346 14.4464 7.46515C15.1081 8.12684 16.0053 8.49899 16.941 8.49993ZM16.941 2.61757C17.4064 2.61757 17.8613 2.75557 18.2483 3.01412C18.6352 3.27266 18.9368 3.64014 19.1149 4.07008C19.293 4.50003 19.3396 4.97312 19.2488 5.42955C19.158 5.88598 18.9339 6.30523 18.6048 6.6343C18.2757 6.96336 17.8565 7.18746 17.4001 7.27824C16.9436 7.36903 16.4705 7.32244 16.0406 7.14435C15.6107 6.96626 15.2432 6.66468 14.9846 6.27774C14.7261 5.8908 14.5881 5.43588 14.5881 4.97051C14.5881 4.34648 14.836 3.748 15.2773 3.30673C15.7185 2.86547 16.317 2.61757 16.941 2.61757Z" fill="black"/>
<path d="M16.9411 9.67682C15.5375 9.67838 14.1918 10.2366 13.1993 11.2291C12.2068 12.2217 13.4428 13.5673 13.4412 14.9709C13.4412 15.1269 13.5032 15.2766 13.6135 15.3869C13.7238 15.4972 13.8734 15.5592 14.0295 15.5592C14.1855 15.5592 14.3351 15.4972 14.4454 15.3869C14.5557 15.2766 14.6177 15.1269 14.6177 14.9709C14.6177 13.8789 13.4117 13.7941 13.7646 12.7353C14.1175 12.0294 15.849 10.8533 16.9411 10.8533C18.0331 10.8533 19.0805 11.2871 19.8527 12.0593C20.6249 12.8315 21.0587 13.8789 21.0587 14.9709C21.0587 15.1269 21.1207 15.2766 21.231 15.3869C21.3413 15.4972 21.4909 15.5592 21.6469 15.5592C21.803 15.5592 21.9526 15.4972 22.0629 15.3869C22.1732 15.2766 22.2352 15.1269 22.2352 14.9709C22.2336 13.5673 21.6754 12.2217 20.6829 11.2291C19.6904 10.2366 18.3447 9.67838 16.9411 9.67682Z" fill="black"/>
</g>
<defs>
<clipPath id="clip0_195_36901">
<rect width="16.9412" height="16.9412" fill="black" transform="translate(0 0.0294189)"/>
</clipPath>
<clipPath id="clip1_195_36901">
<rect width="14.1176" height="14.1176" fill="black" transform="translate(9.88232 1.44116)"/>
</clipPath>
</defs>
</svg>
