<svg width="25" height="25" viewBox="0 0 25 25" fill="none" xmlns="http://www.w3.org/2000/svg">
<g clip-path="url(#clip0_244_9488)">
<path d="M23.7711 9.91891C22.2201 7.39291 18.6921 3.15491 12.5001 3.15491C6.30805 3.15491 2.78005 7.39291 1.22905 9.91891C0.749579 10.6944 0.495605 11.5881 0.495605 12.4999C0.495605 13.4117 0.749579 14.3054 1.22905 15.0809C2.78005 17.6069 6.30805 21.8449 12.5001 21.8449C18.6921 21.8449 22.2201 17.6069 23.7711 15.0809C24.2505 14.3054 24.5045 13.4117 24.5045 12.4999C24.5045 11.5881 24.2505 10.6944 23.7711 9.91891V9.91891ZM22.0661 14.0339C20.7341 16.1999 17.7191 19.8449 12.5001 19.8449C7.28105 19.8449 4.26605 16.1999 2.93405 14.0339C2.64919 13.573 2.4983 13.0418 2.4983 12.4999C2.4983 11.958 2.64919 11.4269 2.93405 10.9659C4.26605 8.79991 7.28105 5.15491 12.5001 5.15491C17.7191 5.15491 20.7341 8.79591 22.0661 10.9659C22.3509 11.4269 22.5018 11.958 22.5018 12.4999C22.5018 13.0418 22.3509 13.573 22.0661 14.0339V14.0339Z" fill="#C1C1C1"/>
<path d="M12.5 7.49988C11.5111 7.49988 10.5444 7.79312 9.72215 8.34253C8.89991 8.89194 8.25904 9.67283 7.8806 10.5865C7.50217 11.5001 7.40315 12.5054 7.59608 13.4753C7.789 14.4452 8.26521 15.3362 8.96447 16.0354C9.66373 16.7347 10.5546 17.2109 11.5246 17.4038C12.4945 17.5967 13.4998 17.4977 14.4134 17.1193C15.327 16.7408 16.1079 16.1 16.6574 15.2777C17.2068 14.4555 17.5 13.4888 17.5 12.4999C17.4984 11.1743 16.9711 9.90344 16.0338 8.9661C15.0964 8.02876 13.8256 7.50147 12.5 7.49988V7.49988ZM12.5 15.4999C11.9067 15.4999 11.3266 15.3239 10.8333 14.9943C10.3399 14.6646 9.95543 14.1961 9.72836 13.6479C9.5013 13.0998 9.44189 12.4966 9.55765 11.9146C9.6734 11.3327 9.95912 10.7981 10.3787 10.3786C10.7982 9.959 11.3328 9.67328 11.9147 9.55752C12.4967 9.44177 13.0999 9.50118 13.6481 9.72824C14.1962 9.9553 14.6648 10.3398 14.9944 10.8332C15.3241 11.3265 15.5 11.9065 15.5 12.4999C15.5 13.2955 15.1839 14.0586 14.6213 14.6212C14.0587 15.1838 13.2957 15.4999 12.5 15.4999Z" fill="#C1C1C1"/>
</g>
<defs>
<clipPath id="clip0_244_9488">
<rect width="24" height="24" fill="gray" transform="translate(0.5 0.5)"/>
</clipPath>
</defs>
</svg>
