<svg width="19" height="19" viewBox="0 0 19 19" fill="none" xmlns="http://www.w3.org/2000/svg">
<g clip-path="url(#clip0_235_5326)">
<path d="M17.6217 7.37833L14.7124 4.46908C14.571 4.33246 14.3815 4.25686 14.1849 4.25857C13.9882 4.26028 13.8001 4.33916 13.6611 4.47822C13.522 4.61727 13.4432 4.80538 13.4414 5.00203C13.4397 5.19868 13.5153 5.38813 13.6519 5.52958L16.5612 8.43883C16.6476 8.52698 16.7232 8.62518 16.7862 8.73133C16.7749 8.73133 16.7659 8.72533 16.7547 8.72533L4.9917 8.74933C4.79279 8.74933 4.60202 8.82835 4.46137 8.969C4.32072 9.10965 4.2417 9.30042 4.2417 9.49933C4.2417 9.69824 4.32072 9.88901 4.46137 10.0297C4.60202 10.1703 4.79279 10.2493 4.9917 10.2493L16.7502 10.2253C16.7712 10.2253 16.7884 10.2148 16.8087 10.2133C16.7422 10.3402 16.6578 10.4569 16.5582 10.5598L13.6489 13.4691C13.5773 13.5383 13.5202 13.621 13.4809 13.7125C13.4416 13.804 13.4209 13.9024 13.42 14.002C13.4191 14.1016 13.4381 14.2004 13.4758 14.2925C13.5135 14.3847 13.5692 14.4685 13.6397 14.5389C13.7101 14.6093 13.7938 14.665 13.886 14.7027C13.9782 14.7404 14.0769 14.7594 14.1765 14.7585C14.2761 14.7577 14.3745 14.737 14.466 14.6977C14.5575 14.6583 14.6403 14.6012 14.7094 14.5296L17.6187 11.6203C18.1811 11.0577 18.4971 10.2948 18.4971 9.49933C18.4971 8.70384 18.1811 7.94091 17.6187 7.37833H17.6217Z" fill="white"/>
<path d="M5.75 17H4.25C3.65326 17 3.08097 16.7629 2.65901 16.341C2.23705 15.919 2 15.3467 2 14.75V4.25C2 3.65326 2.23705 3.08097 2.65901 2.65901C3.08097 2.23705 3.65326 2 4.25 2H5.75C5.94891 2 6.13968 1.92098 6.28033 1.78033C6.42098 1.63968 6.5 1.44891 6.5 1.25C6.5 1.05109 6.42098 0.860322 6.28033 0.71967C6.13968 0.579018 5.94891 0.5 5.75 0.5H4.25C3.2558 0.501191 2.30267 0.896661 1.59966 1.59966C0.896661 2.30267 0.501191 3.2558 0.5 4.25L0.5 14.75C0.501191 15.7442 0.896661 16.6973 1.59966 17.4003C2.30267 18.1033 3.2558 18.4988 4.25 18.5H5.75C5.94891 18.5 6.13968 18.421 6.28033 18.2803C6.42098 18.1397 6.5 17.9489 6.5 17.75C6.5 17.5511 6.42098 17.3603 6.28033 17.2197C6.13968 17.079 5.94891 17 5.75 17Z" fill="white"/>
</g>
<defs>
<clipPath id="clip0_235_5326">
<rect width="18" height="18" fill="white" transform="translate(0.5 0.5)"/>
</clipPath>
</defs>
</svg>
