<svg width="24" height="25" viewBox="0 0 24 25" fill="none" xmlns="http://www.w3.org/2000/svg">
<g clip-path="url(#clip0_195_36916)">
<path d="M19.3332 15.1676C18.5771 15.1682 17.8325 15.3528 17.1637 15.7054C16.4949 16.058 15.9219 16.5681 15.4942 17.1916L8.98518 14.2526C9.44749 13.1362 9.44929 11.8822 8.99018 10.7646L15.4902 7.81055C16.124 8.72731 17.0655 9.38652 18.1438 9.6686C19.222 9.95068 20.3657 9.83696 21.3673 9.34805C22.3689 8.85915 23.1621 8.02745 23.603 7.00382C24.0439 5.98019 24.1034 4.83242 23.7705 3.76873C23.4377 2.70503 22.7347 1.79585 21.7889 1.20611C20.8432 0.616367 19.7174 0.385125 18.6157 0.554329C17.5141 0.723532 16.5096 1.28197 15.7844 2.12836C15.0592 2.97474 14.6614 4.053 14.6632 5.16755C14.6674 5.43135 14.6942 5.69431 14.7432 5.95355L7.83318 9.09355C7.16952 8.47177 6.33868 8.05739 5.44275 7.90132C4.54682 7.74524 3.6248 7.85427 2.78999 8.21501C1.95517 8.57575 1.2439 9.17249 0.743573 9.93192C0.243244 10.6913 -0.0243578 11.5804 -0.0263559 12.4898C-0.0283541 13.3992 0.235338 14.2894 0.732325 15.051C1.22931 15.8127 1.93795 16.4125 2.77117 16.7769C3.6044 17.1413 4.52592 17.2544 5.42253 17.1023C6.31915 16.9501 7.15179 16.5394 7.81818 15.9206L14.7462 19.0486C14.6981 19.3076 14.6716 19.5701 14.6672 19.8336C14.667 20.7567 14.9406 21.6591 15.4533 22.4268C15.966 23.1944 16.6949 23.7928 17.5477 24.1461C18.4006 24.4995 19.339 24.592 20.2444 24.4119C21.1498 24.2319 21.9815 23.7874 22.6342 23.1346C23.287 22.4819 23.7315 21.6502 23.9116 20.7448C24.0916 19.8394 23.9991 18.9009 23.6457 18.0481C23.2924 17.1953 22.694 16.4664 21.9264 15.9537C21.1588 15.4409 20.2563 15.1674 19.3332 15.1676ZM19.3332 2.50055C19.8607 2.50036 20.3764 2.6566 20.8152 2.94954C21.2539 3.24247 21.5959 3.65893 21.7979 4.14624C21.9999 4.63356 22.0528 5.16983 21.9501 5.68725C21.8473 6.20466 21.5933 6.67997 21.2204 7.05305C20.8474 7.42614 20.3722 7.68025 19.8549 7.78323C19.3375 7.88622 18.8012 7.83347 18.3138 7.63164C17.8264 7.42981 17.4098 7.08797 17.1167 6.64936C16.8236 6.21076 16.6672 5.69508 16.6672 5.16755C16.6677 4.46056 16.9487 3.78265 17.4486 3.28264C17.9484 2.78262 18.6262 2.50135 19.3332 2.50055ZM4.66718 15.1676C4.13965 15.1678 3.62392 15.0115 3.1852 14.7186C2.74648 14.4256 2.40449 14.0092 2.20248 13.5219C2.00046 13.0346 1.94751 12.4983 2.0503 11.9809C2.15309 11.4634 2.40702 10.9881 2.77997 10.6151C3.15292 10.242 3.62813 9.98786 4.1455 9.88487C4.66288 9.78189 5.19917 9.83464 5.68656 10.0365C6.17395 10.2383 6.59054 10.5801 6.88364 11.0187C7.17673 11.4574 7.33318 11.973 7.33318 12.5006C7.33238 13.2075 7.05128 13.8852 6.55151 14.3852C6.05174 14.8851 5.37409 15.1665 4.66718 15.1676ZM19.3332 22.5006C18.8057 22.5006 18.2901 22.3441 17.8515 22.0511C17.4129 21.758 17.071 21.3415 16.8692 20.8542C16.6673 20.3668 16.6145 19.8306 16.7174 19.3132C16.8203 18.7959 17.0743 18.3207 17.4473 17.9477C17.8203 17.5747 18.2955 17.3207 18.8129 17.2178C19.3302 17.1149 19.8665 17.1677 20.3538 17.3696C20.8411 17.5714 21.2577 17.9133 21.5507 18.3518C21.8438 18.7904 22.0002 19.3061 22.0002 19.8336C21.9996 20.5407 21.7185 21.2188 21.2184 21.7188C20.7184 22.2189 20.0403 22.5 19.3332 22.5006Z" fill="white"/>
</g>
<defs>
<clipPath id="clip0_195_36916">
<rect width="24" height="24" fill="white" transform="translate(0 0.5)"/>
</clipPath>
</defs>
</svg>
