<svg width="32" height="32" viewBox="0 0 32 32" fill="none" xmlns="http://www.w3.org/2000/svg">
<g clip-path="url(#clip0_244_10110)">
<path d="M23.3334 2.55536C21.832 2.57871 20.3634 2.99783 19.0758 3.77039C17.7882 4.54294 16.7273 5.64158 16.0001 6.95536C15.273 5.64158 14.212 4.54294 12.9244 3.77039C11.6368 2.99783 10.1682 2.57871 8.66677 2.55536C6.27336 2.65935 4.01838 3.70636 2.39448 5.46767C0.770587 7.22897 -0.0902269 9.56139 0.000107148 11.9554C0.000107148 18.018 6.38144 24.6394 11.7334 29.1287C12.9284 30.1329 14.4392 30.6834 16.0001 30.6834C17.561 30.6834 19.0718 30.1329 20.2668 29.1287C25.6188 24.6394 32.0001 18.018 32.0001 11.9554C32.0904 9.56139 31.2296 7.22897 29.6057 5.46767C27.9818 3.70636 25.7269 2.65935 23.3334 2.55536ZM18.5534 27.0887C17.8388 27.6905 16.9344 28.0206 16.0001 28.0206C15.0658 28.0206 14.1615 27.6905 13.4468 27.0887C6.59611 21.3407 2.66677 15.826 2.66677 11.9554C2.57563 10.2683 3.15526 8.61367 4.27926 7.35229C5.40325 6.09092 6.98042 5.32516 8.66677 5.22203C10.3531 5.32516 11.9303 6.09092 13.0543 7.35229C14.1783 8.61367 14.7579 10.2683 14.6668 11.9554C14.6668 12.309 14.8072 12.6481 15.0573 12.8982C15.3073 13.1482 15.6465 13.2887 16.0001 13.2887C16.3537 13.2887 16.6929 13.1482 16.9429 12.8982C17.193 12.6481 17.3334 12.309 17.3334 11.9554C17.2423 10.2683 17.8219 8.61367 18.9459 7.35229C20.0699 6.09092 21.6471 5.32516 23.3334 5.22203C25.0198 5.32516 26.597 6.09092 27.721 7.35229C28.845 8.61367 29.4246 10.2683 29.3334 11.9554C29.3334 15.826 25.4041 21.3407 18.5534 27.0834V27.0887Z" fill="white"/>
</g>
<defs>
<clipPath id="clip0_244_10110">
<rect width="32" height="32" fill="white"/>
</clipPath>
</defs>
</svg>
