<svg width="32" height="32" viewBox="0 0 32 32" fill="none" xmlns="http://www.w3.org/2000/svg">
<g clip-path="url(#clip0_244_10163)">
<path d="M30.8283 12.0919L20.7149 1.97722C19.4633 0.729202 17.7678 0.0283813 16.0003 0.0283813C14.2327 0.0283813 12.5373 0.729202 11.2856 1.97722L1.17226 12.0919C0.799494 12.4623 0.503953 12.9029 0.30277 13.3884C0.101587 13.8738 -0.00123639 14.3944 0.000260247 14.9199V28.0092C0.000260247 29.0701 0.421688 30.0875 1.17183 30.8376C1.92198 31.5878 2.93939 32.0092 4.00026 32.0092H28.0003C29.0611 32.0092 30.0785 31.5878 30.8287 30.8376C31.5788 30.0875 32.0003 29.0701 32.0003 28.0092V14.9199C32.0018 14.3944 31.8989 13.8738 31.6977 13.3884C31.4966 12.9029 31.201 12.4623 30.8283 12.0919V12.0919ZM20.0003 29.3426H12.0003V24.0972C12.0003 23.0364 12.4217 22.0189 13.1718 21.2688C13.922 20.5186 14.9394 20.0972 16.0003 20.0972C17.0611 20.0972 18.0785 20.5186 18.8287 21.2688C19.5788 22.0189 20.0003 23.0364 20.0003 24.0972V29.3426ZM29.3336 28.0092C29.3336 28.3628 29.1931 28.702 28.9431 28.952C28.693 29.2021 28.3539 29.3426 28.0003 29.3426H22.6669V24.0972C22.6669 22.3291 21.9645 20.6334 20.7143 19.3832C19.4641 18.1329 17.7684 17.4306 16.0003 17.4306C14.2322 17.4306 12.5365 18.1329 11.2862 19.3832C10.036 20.6334 9.33359 22.3291 9.33359 24.0972V29.3426H4.00026C3.64664 29.3426 3.3075 29.2021 3.05745 28.952C2.8074 28.702 2.66693 28.3628 2.66693 28.0092V14.9199C2.66816 14.5665 2.80851 14.2279 3.05759 13.9772L13.1709 3.86655C13.9225 3.11846 14.9398 2.69847 16.0003 2.69847C17.0607 2.69847 18.078 3.11846 18.8296 3.86655L28.9429 13.9812C29.191 14.2309 29.3313 14.5679 29.3336 14.9199V28.0092Z" fill="white"/>
</g>
<defs>
<clipPath id="clip0_244_10163">
<rect width="32" height="32" fill="white"/>
</clipPath>
</defs>
</svg>
