<svg width="32" height="32" viewBox="0 0 32 32" fill="none" xmlns="http://www.w3.org/2000/svg">
<g clip-path="url(#clip0_244_10141)">
<path d="M25.3333 0L6.66667 0C4.89921 0.00211714 3.20474 0.705176 1.95496 1.95496C0.705176 3.20474 0.00211714 4.89921 0 6.66667L0 25.3333C0.00211714 27.1008 0.705176 28.7953 1.95496 30.045C3.20474 31.2948 4.89921 31.9979 6.66667 32H25.3333C27.1008 31.9979 28.7953 31.2948 30.045 30.045C31.2948 28.7953 31.9979 27.1008 32 25.3333V6.66667C31.9979 4.89921 31.2948 3.20474 30.045 1.95496C28.7953 0.705176 27.1008 0.00211714 25.3333 0V0ZM29.3333 25.3333C29.3333 26.3942 28.9119 27.4116 28.1618 28.1618C27.4116 28.9119 26.3942 29.3333 25.3333 29.3333H6.66667C5.6058 29.3333 4.58839 28.9119 3.83824 28.1618C3.08809 27.4116 2.66667 26.3942 2.66667 25.3333V6.66667C2.66667 5.6058 3.08809 4.58839 3.83824 3.83824C4.58839 3.08809 5.6058 2.66667 6.66667 2.66667H25.3333C26.3942 2.66667 27.4116 3.08809 28.1618 3.83824C28.9119 4.58839 29.3333 5.6058 29.3333 6.66667V25.3333Z" fill="white"/>
<circle cx="8.00016" cy="9.33335" r="2.66667" fill="white"/>
<circle cx="24.0002" cy="9.33335" r="2.66667" fill="white"/>
<circle cx="24.0002" cy="24" r="2.66667" fill="white"/>
<circle cx="8.00016" cy="24" r="2.66667" fill="white"/>
<circle cx="16.0002" cy="16" r="2.66667" fill="white"/>
</g>
<defs>
<clipPath id="clip0_244_10141">
<rect width="32" height="32" fill="white"/>
</clipPath>
</defs>
</svg>
