<svg width="20" height="20" viewBox="0 0 20 20" fill="none" xmlns="http://www.w3.org/2000/svg">
<g clip-path="url(#clip0_195_36908)">
<path d="M14.1668 20H5.83765C5.35574 19.9997 4.87959 19.8954 4.44177 19.694C4.00395 19.4926 3.61481 19.199 3.30098 18.8333C2.99157 18.4756 2.76311 18.0552 2.63122 17.601C2.49933 17.1468 2.46712 16.6695 2.53682 16.2017C2.98424 13.7646 4.28429 11.5662 6.20432 10C4.28426 8.43322 2.98449 6.23424 2.53765 3.79667C2.46809 3.32918 2.50029 2.85219 2.63203 2.39828C2.76377 1.94438 2.99195 1.52427 3.30098 1.16667C3.61481 0.800955 4.00395 0.50737 4.44177 0.306008C4.87959 0.104646 5.35574 0.000261535 5.83765 0L14.1668 0C14.6487 0.000426786 15.1248 0.104885 15.5626 0.306236C16.0004 0.507587 16.3895 0.801083 16.7035 1.16667C17.0125 1.52412 17.2409 1.94404 17.3729 2.39777C17.5049 2.85149 17.5375 3.32836 17.4685 3.79583C17.0171 6.23412 15.7144 8.43285 13.7926 10C15.7133 11.5685 17.0145 13.7681 17.4643 16.2067C17.5334 16.6743 17.5009 17.1513 17.3688 17.6052C17.2368 18.059 17.0084 18.4791 16.6993 18.8367C16.3855 19.2011 15.9969 19.4937 15.5599 19.6944C15.1229 19.8952 14.6477 19.9994 14.1668 20ZM14.1668 1.66667H5.83765C5.59593 1.66652 5.35702 1.71856 5.13726 1.81924C4.9175 1.91991 4.72207 2.06685 4.56432 2.25C4.41028 2.42536 4.29645 2.63229 4.2308 2.85628C4.16516 3.08027 4.14929 3.3159 4.18432 3.54667C4.49765 5.63 5.78765 7.58 8.01765 9.34417C8.11618 9.42219 8.1958 9.52148 8.25052 9.63462C8.30525 9.74776 8.33368 9.87182 8.33368 9.9975C8.33368 10.1232 8.30525 10.2472 8.25052 10.3604C8.1958 10.4735 8.11618 10.5728 8.01765 10.6508C5.78765 12.4167 4.50015 14.3683 4.18432 16.4508C4.14892 16.682 4.16459 16.9181 4.23025 17.1426C4.2959 17.367 4.40993 17.5744 4.56432 17.75C4.72207 17.9332 4.9175 18.0801 5.13726 18.1808C5.35702 18.2814 5.59593 18.3335 5.83765 18.3333H14.1668C14.4085 18.3335 14.6475 18.2815 14.8672 18.1808C15.087 18.0802 15.2824 17.9332 15.4401 17.75C15.5941 17.575 15.708 17.3683 15.7736 17.1446C15.8393 16.9209 15.8551 16.6855 15.8201 16.455C15.5093 14.3825 14.2201 12.4308 11.9868 10.6533C11.8889 10.5753 11.8098 10.4762 11.7555 10.3633C11.7011 10.2505 11.6729 10.1269 11.6729 10.0017C11.6729 9.87644 11.7011 9.75282 11.7555 9.63999C11.8098 9.52717 11.8889 9.42805 11.9868 9.35C14.221 7.5725 15.5101 5.62083 15.8201 3.5475C15.855 3.31629 15.8387 3.08024 15.7723 2.85604C15.7059 2.63184 15.5911 2.42495 15.436 2.25C15.2787 2.06734 15.084 1.92069 14.865 1.82003C14.646 1.71937 14.4078 1.66706 14.1668 1.66667ZM13.0676 16.6667H6.93182C6.79546 16.6666 6.66121 16.6331 6.54083 16.5691C6.42045 16.505 6.31762 16.4124 6.24136 16.2994C6.1651 16.1864 6.11774 16.0564 6.10344 15.9208C6.08913 15.7852 6.10832 15.6481 6.15932 15.5217C6.81188 14.1126 7.80615 12.8889 9.05182 11.9617L9.48348 11.6183C9.63095 11.501 9.81381 11.4372 10.0022 11.4372C10.1907 11.4372 10.3735 11.501 10.521 11.6183L10.9451 11.9567C12.189 12.8875 13.1833 14.1117 13.8393 15.52C13.8906 15.6465 13.9101 15.7836 13.896 15.9194C13.8819 16.0551 13.8347 16.1854 13.7585 16.2986C13.6823 16.4118 13.5794 16.5046 13.459 16.5688C13.3385 16.633 13.2041 16.6666 13.0676 16.6667ZM8.36182 15H11.6351C11.1597 14.3803 10.6106 13.8206 10.0001 13.3333C9.38695 13.8187 8.8366 14.3786 8.36182 15Z" fill="white"/>
</g>
<defs>
<clipPath id="clip0_195_36908">
<rect width="20" height="20" fill="white"/>
</clipPath>
</defs>
</svg>
