<svg width="22" height="21" viewBox="0 0 22 21" fill="none" xmlns="http://www.w3.org/2000/svg">
<path d="M13.9746 8.73334L9.95839 4.90834C9.79445 4.75313 9.57268 4.66602 9.34152 4.66602C9.11036 4.66602 8.88859 4.75313 8.72464 4.90834C8.64263 4.98581 8.57754 5.07798 8.53311 5.17953C8.48869 5.28108 8.46582 5.39 8.46582 5.50001C8.46582 5.61002 8.48869 5.71894 8.53311 5.82049C8.57754 5.92204 8.64263 6.01421 8.72464 6.09168L12.7496 9.90834C12.8317 9.98581 12.8968 10.078 12.9412 10.1795C12.9856 10.2811 13.0085 10.39 13.0085 10.5C13.0085 10.61 12.9856 10.7189 12.9412 10.8205C12.8968 10.922 12.8317 11.0142 12.7496 11.0917L8.72464 14.9083C8.55988 15.0642 8.46685 15.2759 8.46603 15.4971C8.46521 15.7182 8.55666 15.9306 8.72027 16.0875C8.88388 16.2444 9.10623 16.333 9.33843 16.3338C9.57062 16.3346 9.79363 16.2475 9.95839 16.0917L13.9746 12.2667C14.4662 11.7979 14.7423 11.1625 14.7423 10.5C14.7423 9.83751 14.4662 9.20209 13.9746 8.73334V8.73334Z" fill="#C1C1C1"/>
</svg>
