<svg width="20" height="20" viewBox="0 0 20 20" fill="none" xmlns="http://www.w3.org/2000/svg">
<g clip-path="url(#clip0_106_12996)">
<path d="M19.7559 0.244355C19.5996 0.0881291 19.3877 0.000366211 19.1667 0.000366211C18.9458 0.000366211 18.7338 0.0881291 18.5776 0.244355L10.0001 8.82185L1.42257 0.244355C1.26629 0.0881291 1.05437 0.000366211 0.833399 0.000366211C0.612429 0.000366211 0.400506 0.0881291 0.244233 0.244355C0.088007 0.400628 0.000244141 0.612551 0.000244141 0.833522C0.000244141 1.05449 0.088007 1.26642 0.244233 1.42269L8.82173 10.0002L0.244233 18.5777C0.088007 18.734 0.000244141 18.9459 0.000244141 19.1669C0.000244141 19.3878 0.088007 19.5997 0.244233 19.756C0.400506 19.9122 0.612429 20 0.833399 20C1.05437 20 1.26629 19.9122 1.42257 19.756L10.0001 11.1785L18.5776 19.756C18.7338 19.9122 18.9458 20 19.1667 20C19.3877 20 19.5996 19.9122 19.7559 19.756C19.9121 19.5997 19.9999 19.3878 19.9999 19.1669C19.9999 18.9459 19.9121 18.734 19.7559 18.5777L11.1784 10.0002L19.7559 1.42269C19.9121 1.26642 19.9999 1.05449 19.9999 0.833522C19.9999 0.612551 19.9121 0.400628 19.7559 0.244355Z" fill="white"/>
</g>
<defs>
<clipPath id="clip0_106_12996">
<rect width="20" height="20" fill="white"/>
</clipPath>
</defs>
</svg>
