<svg width="24" height="25" viewBox="0 0 24 25" fill="none" xmlns="http://www.w3.org/2000/svg">
<g clip-path="url(#clip0_106_13066)">
<path d="M17.1697 24.5C17.0381 24.5007 16.9077 24.4755 16.7858 24.4257C16.664 24.376 16.5532 24.3027 16.4597 24.21L8.28974 16.04C7.82411 15.5755 7.45468 15.0238 7.20261 14.4163C6.95055 13.8089 6.8208 13.1577 6.8208 12.5C6.8208 11.8423 6.95055 11.1911 7.20261 10.5837C7.45468 9.9762 7.82411 9.42445 8.28974 8.95999L16.4597 0.790002C16.553 0.696764 16.6637 0.622803 16.7855 0.572342C16.9073 0.521882 17.0379 0.495911 17.1697 0.495911C17.3016 0.495911 17.4322 0.521882 17.554 0.572342C17.6758 0.622803 17.7865 0.696764 17.8797 0.790002C17.973 0.88324 18.0469 0.99393 18.0974 1.11575C18.1479 1.23757 18.1738 1.36814 18.1738 1.5C18.1738 1.63186 18.1479 1.76243 18.0974 1.88425C18.0469 2.00607 17.973 2.11676 17.8797 2.21L9.70974 10.38C9.14794 10.9425 8.83238 11.705 8.83238 12.5C8.83238 13.295 9.14794 14.0575 9.70974 14.62L17.8797 22.79C17.9735 22.8829 18.0479 22.9935 18.0986 23.1154C18.1494 23.2373 18.1755 23.368 18.1755 23.5C18.1755 23.632 18.1494 23.7627 18.0986 23.8846C18.0479 24.0064 17.9735 24.117 17.8797 24.21C17.7863 24.3027 17.6755 24.376 17.5536 24.4257C17.4318 24.4755 17.3013 24.5007 17.1697 24.5Z" fill="white"/>
</g>
<defs>
<clipPath id="clip0_106_13066">
<rect width="24" height="24" fill="white" transform="translate(0 0.5)"/>
</clipPath>
</defs>
</svg>
