<svg width="46" height="49" viewBox="0 0 46 49" fill="none" xmlns="http://www.w3.org/2000/svg">
<g clip-path="url(#clip0_244_10131)">
<path d="M22.6274 9.12738C19.4629 9.12738 16.3695 10.0658 13.7383 11.8239C11.1071 13.582 9.05638 16.0808 7.84538 19.0044C6.63437 21.9281 6.31752 25.1451 6.93488 28.2488C7.55225 31.3525 9.0761 34.2035 11.3137 36.4411C13.5514 38.6787 16.4023 40.2026 19.506 40.8199C22.6097 41.4373 25.8268 41.1205 28.7504 39.9095C31.674 38.6985 34.1729 36.6477 35.931 34.0165C37.6891 31.3853 38.6274 28.2919 38.6274 25.1274C38.6229 20.8853 36.9357 16.8183 33.9361 13.8187C30.9365 10.8192 26.8695 9.13197 22.6274 9.12738V9.12738ZM22.6274 11.794C25.7027 11.7916 28.6834 12.8577 31.0594 14.81L12.3101 33.5594C10.7109 31.6072 9.69899 29.2409 9.39227 26.736C9.08555 24.231 9.49659 21.6905 10.5776 19.4101C11.6585 17.1297 13.365 15.2032 15.4982 13.8549C17.6315 12.5066 20.1038 11.7919 22.6274 11.794V11.794ZM22.6274 38.4607C19.5522 38.4632 16.5715 37.3971 14.1954 35.4447L32.9448 16.6954C34.544 18.6476 35.5559 21.0139 35.8626 23.5188C36.1694 26.0237 35.7583 28.5643 34.6773 30.8447C33.5964 33.1251 31.8899 35.0515 29.7567 36.3999C27.6234 37.7482 25.1511 38.4629 22.6274 38.4607Z" fill="white"/>
</g>
<g clip-path="url(#clip1_244_10131)">
<path d="M22.6274 41.1274C19.4629 41.1274 16.3695 40.189 13.7383 38.4309C11.1071 36.6728 9.05638 34.1739 7.84538 31.2503C6.63437 28.3267 6.31752 25.1096 6.93488 22.0059C7.55225 18.9022 9.0761 16.0513 11.3137 13.8137C13.5514 11.576 16.4023 10.0522 19.506 9.43481C22.6097 8.81745 25.8268 9.1343 28.7504 10.3453C31.674 11.5563 34.1729 13.6071 35.931 16.2383C37.6891 18.8694 38.6274 21.9629 38.6274 25.1274C38.6229 29.3694 36.9357 33.4364 33.9361 36.436C30.9365 39.4356 26.8695 41.1228 22.6274 41.1274V41.1274ZM22.6274 38.4607C25.7027 38.4632 28.6834 37.397 31.0594 35.4447L12.3101 16.6954C10.7109 18.6476 9.69899 21.0139 9.39227 23.5188C9.08555 26.0237 9.49659 28.5643 10.5776 30.8447C11.6585 33.1251 13.365 35.0515 15.4982 36.3999C17.6315 37.7482 20.1038 38.4628 22.6274 38.4607V38.4607ZM22.6274 11.794C19.5522 11.7916 16.5715 12.8577 14.1954 14.81L32.9448 33.5594C34.544 31.6072 35.5559 29.2409 35.8626 26.7359C36.1694 24.231 35.7583 21.6905 34.6773 19.4101C33.5964 17.1297 31.8899 15.2032 29.7567 13.8549C27.6234 12.5066 25.1511 11.7919 22.6274 11.794Z" fill="white"/>
</g>
<g clip-path="url(#clip2_244_10131)">
<path d="M33.9412 36.8137C31.7035 39.0513 28.8526 40.5752 25.7489 41.1925C22.6452 41.8099 19.4281 41.493 16.5045 40.282C13.5809 39.071 11.082 37.0203 9.32393 34.3891C7.56583 31.7579 6.62745 28.6645 6.62744 25.5C6.62744 22.3355 7.56583 19.242 9.32393 16.6108C11.082 13.9796 13.5809 11.9289 16.5045 10.7179C19.4281 9.50688 22.6452 9.19003 25.7489 9.80739C28.8526 10.4248 31.7035 11.9486 33.9412 14.1862C36.9375 17.1891 38.6203 21.2579 38.6203 25.5C38.6203 29.742 36.9375 33.8108 33.9412 36.8137V36.8137ZM32.0555 34.928C34.2318 32.7552 35.5856 29.8938 35.8852 26.8331L9.36966 26.8331C9.61925 29.3444 10.577 31.7331 12.1313 33.7212C13.6857 35.7093 15.7728 37.2151 18.1496 38.0632C20.5265 38.9114 23.0953 39.067 25.5572 38.5119C28.019 37.9569 30.2726 36.714 32.0555 34.928V34.928ZM13.1994 16.0719C11.0231 18.2447 9.66931 21.1062 9.36966 24.1668L35.8852 24.1668C35.6356 21.6556 34.6779 19.2668 33.1236 17.2787C31.5692 15.2906 29.4821 13.7848 27.1053 12.9367C24.7284 12.0885 22.1596 11.9329 19.6977 12.488C17.2359 13.043 14.9823 14.2859 13.1994 16.0719Z" fill="white"/>
</g>
<path d="M19.5292 3.12738H25.4708C25.5759 3.1288 25.6785 3.23069 25.7657 3.42017C25.8528 3.60964 25.9206 3.87819 25.9604 4.19186C26.0002 4.50553 26.0103 4.85023 25.9894 5.18237C25.9684 5.51451 25.9174 5.81918 25.8428 6.05786L22.8773 15.6205C22.8279 15.7811 22.7691 15.9086 22.7044 15.9956C22.6396 16.0826 22.5702 16.1274 22.5 16.1274C22.4298 16.1274 22.3604 16.0826 22.2956 15.9956C22.2309 15.9086 22.1721 15.7811 22.1227 15.6205L19.1572 6.05786C19.0826 5.81918 19.0316 5.51451 19.0106 5.18237C18.9897 4.85023 18.9998 4.50553 19.0396 4.19186C19.0794 3.87819 19.1472 3.60964 19.2343 3.42017C19.3215 3.23069 19.4241 3.1288 19.5292 3.12738Z" fill="white"/>
<defs>
<clipPath id="clip0_244_10131">
<rect width="32" height="32" fill="white" transform="translate(6.62744 9.12738)"/>
</clipPath>
<clipPath id="clip1_244_10131">
<rect width="32" height="32" fill="white" transform="matrix(1 0 0 -1 6.62744 41.1274)"/>
</clipPath>
<clipPath id="clip2_244_10131">
<rect width="32" height="32" fill="white" transform="matrix(0.707107 -0.707107 -0.707107 -0.707107 22.6274 48.1274)"/>
</clipPath>
</defs>
</svg>
