<svg width="32" height="32" viewBox="0 0 32 32" fill="none" xmlns="http://www.w3.org/2000/svg">
<path d="M27.2897 23.0665C27.2617 23.0265 25.2137 20.6465 25.2137 20.6465C25.9578 20.0983 26.4596 19.2822 26.6129 18.3707C26.7661 17.4593 26.5589 16.5239 26.0351 15.7625C26.0017 15.7145 23.5217 12.9745 23.5217 12.9745C24.1421 12.6616 24.6479 12.161 24.9671 11.5438C25.2416 11.0152 25.3649 10.421 25.3235 9.82681C25.2821 9.23258 25.0776 8.66129 24.7324 8.17582C24.7044 8.13316 18.5151 1.12782 18.5151 1.12782C18.1904 0.788079 17.8002 0.517666 17.3681 0.332917C16.936 0.148168 16.471 0.0529175 16.0011 0.0529175C15.5311 0.0529175 15.0661 0.148168 14.634 0.332917C14.2019 0.517666 13.8117 0.788079 13.4871 1.12782C13.4871 1.12782 7.29639 8.13316 7.26839 8.17316C6.9232 8.65862 6.71864 9.22991 6.67724 9.82415C6.63584 10.4184 6.75919 11.0125 7.03372 11.5412C7.35288 12.1583 7.85868 12.659 8.47905 12.9718C8.47905 12.9718 6.00039 15.7118 5.96572 15.7598C5.44185 16.5213 5.23464 17.4566 5.38792 18.3681C5.54119 19.2795 6.04294 20.0956 6.78705 20.6438C6.78705 20.6438 4.73905 23.0238 4.71105 23.0665C4.29831 23.6666 4.05727 24.3681 4.01393 25.0951C3.97058 25.8222 4.12658 26.5473 4.46509 27.1922C4.8036 27.8371 5.31178 28.3774 5.9348 28.7547C6.55782 29.132 7.27203 29.332 8.00039 29.3332H14.6671V30.6665C14.6671 31.0201 14.8075 31.3593 15.0576 31.6093C15.3076 31.8594 15.6468 31.9998 16.0004 31.9998C16.354 31.9998 16.6931 31.8594 16.9432 31.6093C17.1932 31.3593 17.3337 31.0201 17.3337 30.6665V29.3332H24.0004C24.7292 29.333 25.4441 29.1336 26.0679 28.7567C26.6917 28.3798 27.2006 27.8396 27.5398 27.1946C27.8789 26.5495 28.0354 25.824 27.9923 25.0964C27.9491 24.3689 27.708 23.667 27.2951 23.0665H27.2897ZM25.1764 25.9558C25.0651 26.1713 24.8963 26.3518 24.6887 26.4772C24.4812 26.6027 24.2429 26.6682 24.0004 26.6665H8.00039C7.76236 26.6668 7.52858 26.6034 7.32333 26.4829C7.11808 26.3623 6.94884 26.189 6.83318 25.981C6.71753 25.773 6.65968 25.5378 6.66563 25.2998C6.67159 25.0618 6.74113 24.8298 6.86705 24.6278L9.71372 21.3332H17.3337C17.6873 21.3332 18.0265 21.1927 18.2765 20.9426C18.5266 20.6926 18.6671 20.3534 18.6671 19.9998C18.6671 19.6462 18.5266 19.3071 18.2765 19.057C18.0265 18.807 17.6873 18.6665 17.3337 18.6665H8.89372C8.73766 18.6665 8.58435 18.6255 8.44918 18.5475C8.31401 18.4695 8.20175 18.3573 8.12365 18.2222C8.04556 18.0871 8.00439 17.9338 8.00429 17.7778C8.00418 17.6217 8.04514 17.4684 8.12305 17.3332L11.7524 13.3332H16.0004C16.354 13.3332 16.6931 13.1927 16.9432 12.9426C17.1932 12.6926 17.3337 12.3534 17.3337 11.9998C17.3337 11.6462 17.1932 11.3071 16.9432 11.057C16.6931 10.807 16.354 10.6665 16.0004 10.6665H10.0004C9.87709 10.6709 9.7551 10.6401 9.64863 10.5778C9.54216 10.5154 9.4556 10.4241 9.39905 10.3145C9.35188 10.2287 9.32827 10.1319 9.33061 10.034C9.33295 9.93614 9.36117 9.84061 9.41238 9.75716L15.4817 2.89182C15.5453 2.81728 15.6243 2.75741 15.7133 2.71636C15.8023 2.67531 15.8991 2.65405 15.9971 2.65405C16.095 2.65405 16.1919 2.67531 16.2808 2.71636C16.3698 2.75741 16.4488 2.81728 16.5124 2.89182L22.5791 9.75582C22.6306 9.83911 22.6591 9.93459 22.6617 10.0325C22.6643 10.1304 22.6408 10.2273 22.5937 10.3132C22.5379 10.4218 22.4527 10.5125 22.3478 10.575C22.2429 10.6375 22.1225 10.6692 22.0004 10.6665H20.8431C20.5864 10.67 20.3362 10.7471 20.122 10.8886C19.9079 11.0302 19.7389 11.2301 19.635 11.4648C19.5311 11.6995 19.4968 11.9591 19.536 12.2128C19.5752 12.4664 19.6864 12.7035 19.8564 12.8958L23.8777 17.3332C23.9556 17.4684 23.9966 17.6217 23.9965 17.7778C23.9964 17.9338 23.9552 18.0871 23.8771 18.2222C23.799 18.3573 23.6868 18.4695 23.5516 18.5475C23.4164 18.6255 23.2631 18.6665 23.1071 18.6665H22.8977C22.6441 18.6704 22.3967 18.746 22.1843 18.8847C21.9719 19.0233 21.8031 19.2193 21.6975 19.45C21.5919 19.6806 21.5537 19.9364 21.5875 20.1878C21.6213 20.4392 21.7256 20.6759 21.8884 20.8705L25.1284 24.6278C25.2541 24.8243 25.3248 25.0509 25.3332 25.2839C25.3417 25.517 25.2875 25.7481 25.1764 25.9532V25.9558Z" fill="white"/>
</svg>
