<svg width="20" height="20" viewBox="0 0 20 20" fill="none" xmlns="http://www.w3.org/2000/svg">
<g clip-path="url(#clip0_195_36911)">
<path d="M13.3335 13.3333C13.3335 13.4982 13.2846 13.6593 13.193 13.7963C13.1015 13.9333 12.9713 14.0402 12.819 14.1032C12.6668 14.1663 12.4992 14.1828 12.3376 14.1507C12.1759 14.1185 12.0274 14.0391 11.9109 13.9226C11.7943 13.806 11.715 13.6576 11.6828 13.4959C11.6507 13.3343 11.6672 13.1667 11.7302 13.0144C11.7933 12.8622 11.9001 12.732 12.0372 12.6404C12.1742 12.5489 12.3353 12.5 12.5001 12.5C12.7212 12.5 12.9331 12.5878 13.0894 12.7441C13.2457 12.9004 13.3335 13.1123 13.3335 13.3333ZM15.8335 12.5C15.6687 12.5 15.5075 12.5489 15.3705 12.6404C15.2335 12.732 15.1266 12.8622 15.0636 13.0144C15.0005 13.1667 14.984 13.3343 15.0162 13.4959C15.0483 13.6576 15.1277 13.806 15.2442 13.9226C15.3608 14.0391 15.5092 14.1185 15.6709 14.1507C15.8325 14.1828 16.0001 14.1663 16.1524 14.1032C16.3046 14.0402 16.4348 13.9333 16.5264 13.7963C16.6179 13.6593 16.6668 13.4982 16.6668 13.3333C16.6668 13.1123 16.579 12.9004 16.4227 12.7441C16.2664 12.5878 16.0545 12.5 15.8335 12.5ZM14.1668 10C14.002 10 13.8409 10.0489 13.7038 10.1404C13.5668 10.232 13.46 10.3622 13.3969 10.5144C13.3338 10.6667 13.3173 10.8343 13.3495 10.9959C13.3816 11.1576 13.461 11.306 13.5775 11.4226C13.6941 11.5391 13.8426 11.6185 14.0042 11.6507C14.1659 11.6828 14.3334 11.6663 14.4857 11.6032C14.638 11.5402 14.7681 11.4333 14.8597 11.2963C14.9513 11.1593 15.0001 10.9982 15.0001 10.8333C15.0001 10.6123 14.9123 10.4004 14.7561 10.2441C14.5998 10.0878 14.3878 10 14.1668 10ZM20.0001 13.3333C20.0018 14.6078 19.6376 15.856 18.9508 16.9296C18.264 18.0033 17.2835 18.8573 16.1258 19.3902C14.968 19.923 13.6817 20.1125 12.4195 19.9359C11.1573 19.7594 9.97224 19.2243 9.00514 18.3942C8.70817 18.8835 8.29035 19.2882 7.79183 19.5694C7.29331 19.8506 6.73084 19.9989 6.15847 20H3.84181C3.20832 20.0005 2.58781 19.8205 2.05295 19.481C1.51809 19.1416 1.09104 18.6568 0.821806 18.0833C0.26488 16.8535 -0.0155958 15.5166 0.000138968 14.1667C0.100197 12.5532 0.597128 10.9894 1.44681 9.61417C2.01483 8.72325 2.37485 7.71581 2.50014 6.66667C2.40511 6.04902 2.2505 5.44202 2.03847 4.85417C1.8484 4.36572 1.72344 3.85439 1.66681 3.33333C1.66681 2.44928 2.018 1.60143 2.64312 0.976311C3.26824 0.35119 4.11608 0 5.00014 0C5.88419 0 6.73204 0.35119 7.35716 0.976311C7.98228 1.60143 8.33347 2.44928 8.33347 3.33333C8.27684 3.85439 8.15188 4.36572 7.96181 4.85417C7.74978 5.44202 7.59517 6.04902 7.50014 6.66667C7.57126 7.50202 7.8296 8.31064 8.25597 9.0325C9.13616 7.98865 10.3161 7.24076 11.6358 6.89026C12.9554 6.53975 14.351 6.6036 15.6331 7.07313C16.9152 7.54267 18.022 8.39517 18.8032 9.51503C19.5844 10.6349 20.0022 11.9679 20.0001 13.3333ZM3.33347 3.33333C3.34681 3.45833 3.50931 3.97667 3.62847 4.355C3.91005 5.09815 4.0911 5.87558 4.16681 6.66667H5.83347C5.90918 5.87558 6.09022 5.09815 6.37181 4.355C6.48896 4.01254 6.58744 3.66397 6.66681 3.31083C6.66382 2.86881 6.48537 2.44607 6.1707 2.13562C5.85602 1.82517 5.43092 1.65243 4.98889 1.65542C4.54686 1.6584 4.12412 1.83686 3.81367 2.15153C3.50322 2.4662 3.33049 2.89131 3.33347 3.33333ZM7.66681 17.38C8.12132 16.3705 8.34889 15.2736 8.33347 14.1667C8.22285 12.8223 7.79072 11.5241 7.07347 10.3817C6.71258 9.72269 6.40063 9.03806 6.14014 8.33333H3.86014C3.59965 9.03806 3.2877 9.72269 2.92681 10.3817C2.20956 11.5241 1.77742 12.8223 1.66681 14.1667C1.65148 15.2739 1.87904 16.371 2.33347 17.3808C2.4688 17.6662 2.68243 17.9072 2.94948 18.0759C3.21652 18.2445 3.52598 18.3338 3.84181 18.3333H6.15847C6.47439 18.3337 6.78391 18.2443 7.05096 18.0755C7.31801 17.9067 7.53159 17.6655 7.66681 17.38ZM18.3335 13.3333C18.3349 12.247 17.982 11.1898 17.3283 10.3222C16.6745 9.45455 15.7556 8.82384 14.711 8.52573C13.6663 8.22762 12.553 8.27839 11.5398 8.67033C10.5266 9.06226 9.66888 9.77398 9.09681 10.6975C9.65495 11.7712 9.96373 12.9571 10.0001 14.1667C10.0003 15.0277 9.88598 15.8849 9.66014 16.7158C10.3407 17.4572 11.2294 17.9757 12.2097 18.2034C13.19 18.431 14.2162 18.3572 15.1539 17.9915C16.0915 17.6258 16.8968 16.9854 17.4641 16.1542C18.0315 15.323 18.3345 14.3397 18.3335 13.3333Z" fill="white"/>
</g>
<defs>
<clipPath id="clip0_195_36911">
<rect width="20" height="20" fill="white"/>
</clipPath>
</defs>
</svg>
