<svg width="50" height="32" viewBox="0 0 50 32" fill="none" xmlns="http://www.w3.org/2000/svg">
<path fill-rule="evenodd" clip-rule="evenodd" d="M28.5703 0H20.5703C19.2442 0 17.9725 0.566035 17.0348 1.57358C16.4107 2.2442 15.9686 3.07384 15.7427 3.97388C15.7317 3.96698 15.7206 3.96026 15.7093 3.95372C14.5427 3.27623 13.1734 3.12444 11.9027 3.53175L4.2365 5.98899C2.96575 6.3963 1.89764 7.32935 1.26712 8.58287C0.636609 9.83639 0.495348 11.3077 0.874417 12.6731L4.8764 27.0886C5.06409 27.7647 5.37388 28.3944 5.78808 28.9419C6.20227 29.4893 6.71277 29.9437 7.29041 30.2792C8.457 30.9567 9.82629 31.1085 11.097 30.7012L18.7632 28.2439C19.3924 28.0423 19.9785 27.7094 20.488 27.2643C20.9593 26.8526 21.3566 26.3523 21.6606 25.7882H27.898C27.993 26.1114 28.1164 26.425 28.2671 26.7245C28.8976 27.9781 29.9657 28.9111 31.2365 29.3184L38.9026 31.7758C39.5318 31.9775 40.1918 32.044 40.845 31.9716C41.4981 31.8993 42.1316 31.6893 42.7093 31.3539C43.2869 31.0184 43.7974 30.564 44.2116 30.0166C44.6258 29.4691 44.9356 28.8394 45.1233 28.1633L49.1255 13.7479C49.5046 12.3825 49.3633 10.9112 48.7328 9.65764C48.1023 8.40411 47.0342 7.47105 45.7635 7.06372L38.0973 4.60637C36.8266 4.19904 34.0704 5.37256 33.5704 6.44707L33.5703 6.44713V5.37255C33.5703 3.94766 33.0435 2.58113 32.1059 1.57358C31.1682 0.566035 29.8964 0 28.5703 0ZM15.5703 7.44917V20.4157C15.5703 21.1212 15.6997 21.8199 15.9509 22.4717C16.2022 23.1235 16.5705 23.7158 17.0348 24.2147C17.6497 24.8754 18.4083 25.3463 19.2317 25.5921C18.9277 25.859 18.575 26.0617 18.1915 26.1846L10.5253 28.6418C9.76288 28.8862 8.94131 28.7951 8.24135 28.3886C7.54139 27.9821 7.02038 27.2935 6.79294 26.4743L2.79096 12.0588C2.56352 11.2396 2.64828 10.3568 3.02659 9.60467C3.40489 8.85256 4.04576 8.29273 4.80821 8.04834L12.4744 5.5911C13.2368 5.34671 14.0584 5.43778 14.7584 5.84428C15.2925 6.1545 15.4328 6.79774 15.5703 7.44917ZM30.0266 25.7028C30.0051 25.66 29.9935 25.6146 29.9909 25.5669C30.1578 25.5137 30.3223 25.4511 30.4837 25.3793C31.0904 25.1093 31.6416 24.7136 32.1059 24.2147C32.5702 23.7158 32.9385 23.1235 33.1897 22.4717C33.441 21.8199 33.5703 21.1212 33.5703 20.4157V11.3355L33.7932 8.83321C34.0206 8.01396 34.5416 7.32534 35.2416 6.91886C35.9416 6.51237 36.7631 6.42131 37.5256 6.66571L45.1917 9.12306C45.9542 9.36746 46.595 9.92729 46.9733 10.6794C47.3516 11.4315 47.4364 12.3143 47.2089 13.1336L43.2068 27.549C42.9793 28.3682 42.4583 29.0568 41.7583 29.4633C41.0584 29.8698 40.2368 29.9609 39.4744 29.7165L31.8082 27.2591C31.0458 27.0147 30.4049 26.4549 30.0266 25.7028ZM31.5703 20.4157C31.5703 21.2706 31.2543 22.0906 30.6916 22.6951C30.129 23.2996 29.366 23.6392 28.5703 23.6392H20.5703C19.7747 23.6392 19.0116 23.2996 18.449 22.6951C17.8864 22.0906 17.5703 21.2706 17.5703 20.4157V5.37255C17.5703 4.51762 17.8864 3.6977 18.449 3.09317C19.0116 2.48864 19.7747 2.14902 20.5703 2.14902H28.5703C29.366 2.14902 30.129 2.48864 30.6916 3.09317C31.2543 3.6977 31.5703 4.51762 31.5703 5.37255V20.4157Z" fill="white"/>
</svg>
