<svg width="19" height="19" viewBox="0 0 19 19" fill="none" xmlns="http://www.w3.org/2000/svg">
<g clip-path="url(#clip0_235_6185)">
<path d="M16.25 3.5H13.925C13.7509 2.65356 13.2904 1.89301 12.6209 1.34654C11.9515 0.800068 11.1142 0.501091 10.25 0.5L8.75 0.5C7.88585 0.501091 7.04849 0.800068 6.37906 1.34654C5.70964 1.89301 5.24907 2.65356 5.075 3.5H2.75C2.55109 3.5 2.36032 3.57902 2.21967 3.71967C2.07902 3.86032 2 4.05109 2 4.25C2 4.44891 2.07902 4.63968 2.21967 4.78033C2.36032 4.92098 2.55109 5 2.75 5H3.5V14.75C3.50119 15.7442 3.89666 16.6973 4.59966 17.4003C5.30267 18.1033 6.2558 18.4988 7.25 18.5H11.75C12.7442 18.4988 13.6973 18.1033 14.4003 17.4003C15.1033 16.6973 15.4988 15.7442 15.5 14.75V5H16.25C16.4489 5 16.6397 4.92098 16.7803 4.78033C16.921 4.63968 17 4.44891 17 4.25C17 4.05109 16.921 3.86032 16.7803 3.71967C16.6397 3.57902 16.4489 3.5 16.25 3.5ZM8.75 2H10.25C10.7152 2.00057 11.1688 2.14503 11.5487 2.41358C11.9286 2.68213 12.2161 3.06162 12.3717 3.5H6.62825C6.78394 3.06162 7.07143 2.68213 7.45129 2.41358C7.83115 2.14503 8.28479 2.00057 8.75 2ZM14 14.75C14 15.3467 13.7629 15.919 13.341 16.341C12.919 16.7629 12.3467 17 11.75 17H7.25C6.65326 17 6.08097 16.7629 5.65901 16.341C5.23705 15.919 5 15.3467 5 14.75V5H14V14.75Z" fill="#D93D3D"/>
<path d="M8 13.9995C8.19891 13.9995 8.38968 13.9205 8.53033 13.7798C8.67098 13.6392 8.75 13.4484 8.75 13.2495V8.74951C8.75 8.5506 8.67098 8.35983 8.53033 8.21918C8.38968 8.07853 8.19891 7.99951 8 7.99951C7.80109 7.99951 7.61032 8.07853 7.46967 8.21918C7.32902 8.35983 7.25 8.5506 7.25 8.74951V13.2495C7.25 13.4484 7.32902 13.6392 7.46967 13.7798C7.61032 13.9205 7.80109 13.9995 8 13.9995Z" fill="#D93D3D"/>
<path d="M11 13.9995C11.1989 13.9995 11.3897 13.9205 11.5303 13.7798C11.671 13.6392 11.75 13.4484 11.75 13.2495V8.74951C11.75 8.5506 11.671 8.35983 11.5303 8.21918C11.3897 8.07853 11.1989 7.99951 11 7.99951C10.8011 7.99951 10.6103 8.07853 10.4697 8.21918C10.329 8.35983 10.25 8.5506 10.25 8.74951V13.2495C10.25 13.4484 10.329 13.6392 10.4697 13.7798C10.6103 13.9205 10.8011 13.9995 11 13.9995Z" fill="#D93D3D"/>
</g>
<defs>
<clipPath id="clip0_235_6185">
<rect width="18" height="18" fill="white" transform="translate(0.5 0.5)"/>
</clipPath>
</defs>
</svg>
