<svg width="30" height="30" viewBox="0 0 30 30" fill="none" xmlns="http://www.w3.org/2000/svg">
<g clip-path="url(#clip0_235_5666)">
<path d="M23.75 10.53V8.75C23.75 6.42936 22.8281 4.20376 21.1872 2.56282C19.5462 0.921873 17.3206 0 15 0C12.6794 0 10.4538 0.921873 8.81282 2.56282C7.17187 4.20376 6.25 6.42936 6.25 8.75V10.53C5.1367 11.0159 4.18912 11.8157 3.52312 12.8315C2.85713 13.8474 2.5016 15.0353 2.5 16.25V23.75C2.50198 25.407 3.1611 26.9956 4.33277 28.1672C5.50445 29.3389 7.09301 29.998 8.75 30H21.25C22.907 29.998 24.4956 29.3389 25.6672 28.1672C26.8389 26.9956 27.498 25.407 27.5 23.75V16.25C27.4984 15.0353 27.1429 13.8474 26.4769 12.8315C25.8109 11.8157 24.8633 11.0159 23.75 10.53ZM8.75 8.75C8.75 7.0924 9.40848 5.50269 10.5806 4.33058C11.7527 3.15848 13.3424 2.5 15 2.5C16.6576 2.5 18.2473 3.15848 19.4194 4.33058C20.5915 5.50269 21.25 7.0924 21.25 8.75V10H8.75V8.75ZM25 23.75C25 24.7446 24.6049 25.6984 23.9017 26.4017C23.1984 27.1049 22.2446 27.5 21.25 27.5H8.75C7.75544 27.5 6.80161 27.1049 6.09835 26.4017C5.39509 25.6984 5 24.7446 5 23.75V16.25C5 15.2554 5.39509 14.3016 6.09835 13.5983C6.80161 12.8951 7.75544 12.5 8.75 12.5H21.25C22.2446 12.5 23.1984 12.8951 23.9017 13.5983C24.6049 14.3016 25 15.2554 25 16.25V23.75Z" fill="white"/>
<path d="M15 17.4995C14.6685 17.4995 14.3505 17.6312 14.1161 17.8656C13.8817 18.1 13.75 18.418 13.75 18.7495V21.2495C13.75 21.581 13.8817 21.899 14.1161 22.1334C14.3505 22.3678 14.6685 22.4995 15 22.4995C15.3315 22.4995 15.6495 22.3678 15.8839 22.1334C16.1183 21.899 16.25 21.581 16.25 21.2495V18.7495C16.25 18.418 16.1183 18.1 15.8839 17.8656C15.6495 17.6312 15.3315 17.4995 15 17.4995Z" fill="white"/>
</g>
<defs>
<clipPath id="clip0_235_5666">
<rect width="30" height="30" fill="white"/>
</clipPath>
</defs>
</svg>
