<svg width="104" height="110" viewBox="0 0 104 110" fill="none" xmlns="http://www.w3.org/2000/svg">
<path opacity="0.64" d="M80.3376 45.7213C80.3376 45.7213 92.5633 45.151 95.9471 59.0757C99.3309 73.0004 88.2542 78.2985 88.2542 78.2985L87.0221 73.2283C87.0221 73.2283 93.4549 69.4114 91.247 60.3256C89.0391 51.2399 81.8913 52.1146 81.8913 52.1146L80.3399 45.7305L80.3376 45.7213Z" fill="white" stroke="white" stroke-width="0.75" stroke-miterlimit="10"/>
<path d="M70.7578 27.776C70.9549 28.2769 71.1259 28.8036 71.2586 29.3495C72.4412 34.2162 70.4118 38.8836 66.7234 39.7799C64.0511 40.4293 61.2387 38.908 59.4513 36.1578C58.0793 37.863 55.6376 39.3284 52.6808 40.047C47.5699 41.2889 42.8263 39.8353 42.0866 36.7913C42.0214 36.5229 41.9889 36.2565 41.9971 35.9801C40.4034 35.8873 38.8766 35.5822 37.456 35.0945C36.4706 36.2648 35.1051 37.1552 33.4896 37.5478C31.4472 38.0441 29.3934 37.6515 27.7544 36.6192C27.1988 36.9012 26.5845 37.119 25.9342 37.2771C23.709 37.8178 21.54 37.4826 20.0375 36.5249C18.733 37.3122 17.1985 37.9497 15.5016 38.3621C9.77094 39.7547 4.43154 38.0636 3.58615 34.5847C3.23316 33.1321 3.71209 31.6047 4.81508 30.2098C4.5819 29.7374 4.39727 29.2433 4.26912 28.7159C3.11346 23.9603 6.8013 18.9879 12.5117 17.6002C15.1128 16.9681 17.6737 17.1885 19.8117 18.0603C21.2121 17.2693 22.8403 16.6188 24.6185 16.1867C27.0876 15.5867 29.4963 15.4913 31.5773 15.8185C33.8195 13.0004 37.219 10.7828 41.3138 9.78777C49.2393 7.86184 56.9857 11.2217 59.4312 17.3885C60.0286 17.1453 60.6552 16.9343 61.3055 16.7762C66.518 15.5096 71.5217 17.7232 72.4952 21.7294C73.0056 23.8297 72.298 26.0103 70.7578 27.776Z" fill="white"/>
<path d="M70.7578 27.776C70.9549 28.2769 71.1259 28.8036 71.2586 29.3495C72.4412 34.2162 70.4118 38.8836 66.7234 39.7799C64.0511 40.4293 61.2387 38.908 59.4513 36.1578C58.0793 37.863 55.6376 39.3284 52.6808 40.047C47.5699 41.2889 42.8263 39.8353 42.0866 36.7913C42.0214 36.5229 41.9889 36.2565 41.9971 35.9801C40.4034 35.8873 38.8766 35.5822 37.456 35.0945C36.4706 36.2648 35.1051 37.1552 33.4896 37.5478C31.4472 38.0441 29.3934 37.6515 27.7544 36.6192C27.1988 36.9012 26.5845 37.119 25.9342 37.2771C23.709 37.8178 21.54 37.4826 20.0375 36.5249C18.733 37.3122 17.1985 37.9497 15.5016 38.3621C9.77094 39.7547 4.43154 38.0636 3.58615 34.5847C3.23316 33.1321 3.71209 31.6047 4.81508 30.2098C4.5819 29.7374 4.39727 29.2433 4.26912 28.7159C3.11346 23.9603 6.8013 18.9879 12.5117 17.6002C15.1128 16.9681 17.6737 17.1885 19.8117 18.0603C21.2121 17.2693 22.8403 16.6188 24.6185 16.1867C27.0876 15.5867 29.4963 15.4913 31.5773 15.8185C33.8195 13.0004 37.219 10.7828 41.3138 9.78777C49.2393 7.86184 56.9857 11.2217 59.4312 17.3885C60.0286 17.1453 60.6552 16.9343 61.3055 16.7762C66.518 15.5096 71.5217 17.7232 72.4952 21.7294C73.0056 23.8297 72.298 26.0103 70.7578 27.776Z" fill="url(#paint0_linear_195_7853)" fill-opacity="0.2"/>
<path d="M25.5409 104.385C26.3839 104.445 26.8851 104.382 27.943 104.086C28.2512 104.07 28.4104 104.06 28.7366 104.03C29.8516 104.19 30.443 104.233 31.6496 104.194C32.2163 105.242 32.5782 105.713 33.4013 106.532C30.7223 107.153 29.3455 106.978 27.3023 106.054C26.4506 105.516 26.0875 105.174 25.551 104.383L25.5409 104.385ZM19.5225 80.195C20.1665 78.4609 20.5498 77.6916 21.4429 76.3184C21.8275 77.7241 22.0289 78.4199 22.4135 79.8256C22.2982 79.9712 22.2305 80.0464 22.1174 80.2013C21.1979 81.0225 20.7956 81.4926 20.1116 82.6191C19.8755 81.6476 19.7586 81.1664 19.5225 80.195ZM20.5847 77.7909C20.9217 77.1407 21.1049 76.8316 21.4903 76.248C23.3978 83.2119 24.3561 86.7123 26.2917 93.7477C27.7694 99.2972 27.199 103.15 31.2294 106.805C30.5127 106.822 30.1628 106.799 29.4925 106.698C24.7244 97.8815 23.0157 87.3516 20.5847 77.7909ZM20.6967 77.5874C21.7913 75.538 22.4693 74.6971 23.9866 73.28C27.8163 81.3347 29.9836 85.7367 34.475 94.6987C34.1363 94.8104 33.9782 94.8684 33.6418 94.9894C32.2338 85.0331 31.4172 79.9011 29.8029 69.7599C30.4939 69.5037 30.8428 69.3896 31.5699 69.1933C33.4284 81.2251 34.3857 93.7111 37.8405 105.404C36.9464 105.621 36.5016 105.739 35.6198 105.963C29.7472 96.6315 25.1114 87.6066 20.6967 77.5874ZM38.4994 102.226C39.7292 101.574 40.3492 101.247 41.6118 100.598C42.2011 100.454 42.5059 100.38 43.0952 100.237C44.82 100.161 45.6835 100.127 47.4105 100.061C47.8755 101.221 48.1368 101.765 48.6979 102.746C45.2613 103.571 43.5442 103.989 40.1222 104.83C39.3884 103.891 39.0559 103.365 38.5096 102.223L38.4994 102.226ZM36.4404 89.8117C33.9505 81.7352 32.7106 77.6957 30.2082 69.6124C32.1345 68.9483 33.1674 68.7267 35.3145 68.4401C37.0179 74.0327 38.8285 79.6679 40.6154 85.25C40.8371 85.9409 40.9429 86.2875 41.1668 86.9876C42.9909 92.6783 44.3482 98.9723 46.9785 103.154C44.9057 103.658 43.8693 103.91 41.8067 104.411C38.8208 100.227 37.6758 93.8327 36.4381 89.8025L36.4404 89.8117ZM32.5916 68.9254C34.3031 68.5291 35.1972 68.4 37.0349 68.2572C37.4411 69.5303 37.6493 70.1656 38.0532 71.4295C36.5234 71.909 35.7838 72.1867 34.3519 72.8482C34.1589 72.8951 34.0674 72.9174 33.8845 72.9618C33.3748 71.3513 33.1137 70.5427 32.604 68.9322L32.5916 68.9254Z" fill="#F7931E"/>
<path d="M25.5409 104.385C26.3839 104.445 26.8851 104.382 27.943 104.086C28.2512 104.07 28.4104 104.06 28.7366 104.03C29.8516 104.19 30.443 104.233 31.6496 104.194C32.2163 105.242 32.5782 105.713 33.4013 106.532C30.7223 107.153 29.3455 106.978 27.3023 106.054C26.4506 105.516 26.0875 105.174 25.551 104.383L25.5409 104.385ZM19.5225 80.195C20.1665 78.4609 20.5498 77.6916 21.4429 76.3184C21.8275 77.7241 22.0289 78.4199 22.4135 79.8256C22.2982 79.9712 22.2305 80.0464 22.1174 80.2013C21.1979 81.0225 20.7956 81.4926 20.1116 82.6191C19.8755 81.6476 19.7586 81.1664 19.5225 80.195ZM20.5847 77.7909C20.9217 77.1407 21.1049 76.8316 21.4903 76.248C23.3978 83.2119 24.3561 86.7123 26.2917 93.7477C27.7694 99.2972 27.199 103.15 31.2294 106.805C30.5127 106.822 30.1628 106.799 29.4925 106.698C24.7244 97.8815 23.0157 87.3516 20.5847 77.7909ZM20.6967 77.5874C21.7913 75.538 22.4693 74.6971 23.9866 73.28C27.8163 81.3347 29.9836 85.7367 34.475 94.6987C34.1363 94.8104 33.9782 94.8684 33.6418 94.9894C32.2338 85.0331 31.4172 79.9011 29.8029 69.7599C30.4939 69.5037 30.8428 69.3896 31.5699 69.1933C33.4284 81.2251 34.3857 93.7111 37.8405 105.404C36.9464 105.621 36.5016 105.739 35.6198 105.963C29.7472 96.6315 25.1114 87.6066 20.6967 77.5874ZM38.4994 102.226C39.7292 101.574 40.3492 101.247 41.6118 100.598C42.2011 100.454 42.5059 100.38 43.0952 100.237C44.82 100.161 45.6835 100.127 47.4105 100.061C47.8755 101.221 48.1368 101.765 48.6979 102.746C45.2613 103.571 43.5442 103.989 40.1222 104.83C39.3884 103.891 39.0559 103.365 38.5096 102.223L38.4994 102.226ZM36.4404 89.8117C33.9505 81.7352 32.7106 77.6957 30.2082 69.6124C32.1345 68.9483 33.1674 68.7267 35.3145 68.4401C37.0179 74.0327 38.8285 79.6679 40.6154 85.25C40.8371 85.9409 40.9429 86.2875 41.1668 86.9876C42.9909 92.6783 44.3482 98.9723 46.9785 103.154C44.9057 103.658 43.8693 103.91 41.8067 104.411C38.8208 100.227 37.6758 93.8327 36.4381 89.8025L36.4404 89.8117ZM32.5916 68.9254C34.3031 68.5291 35.1972 68.4 37.0349 68.2572C37.4411 69.5303 37.6493 70.1656 38.0532 71.4295C36.5234 71.909 35.7838 72.1867 34.3519 72.8482C34.1589 72.8951 34.0674 72.9174 33.8845 72.9618C33.3748 71.3513 33.1137 70.5427 32.604 68.9322L32.5916 68.9254Z" fill="url(#paint1_linear_195_7853)" fill-opacity="0.2"/>
<path d="M50.1259 87.1429C51.1018 86.4648 52.8975 85.3523 54.0314 84.7044C54.306 85.5686 54.4444 86.0053 54.7189 86.8694C53.5624 87.6012 52.3076 88.4157 51.7143 89.2066C51.1548 89.9598 50.6451 91.7593 51.5409 94.5596C52.3533 97.1058 53.28 98.174 54.0613 98.0233C54.4112 97.9579 54.6994 97.5939 55.0321 96.7488C55.3613 95.9339 55.5401 95.5181 55.8512 94.7173C56.0237 94.94 56.106 95.0572 56.2785 95.2798C56.0561 96.4019 55.9055 96.9775 55.7046 98.0551C55.2146 100.555 55.0575 101.946 53.1371 102.412C51.2167 102.879 48.6378 101.477 47.3531 97.0764C46.1562 92.9481 46.2744 89.8034 50.1259 87.1429ZM55.0968 97.4581C53.6141 92.4194 52.6834 89.608 51.0079 84.3515C49.6272 80.0425 48.8057 78.6547 46.9907 78.7136C46.2638 78.7335 45.618 78.91 44.4876 79.5277C45.1183 78.5807 45.4348 78.1119 46.0791 77.2204C46.4943 78.5305 46.707 79.1843 47.1222 80.4944C48.4657 84.6949 47.8828 86.4142 46.6783 86.5501C45.5901 86.6773 44.3562 85.7621 43.6333 83.9389C41.9602 79.7107 43.4415 75.8428 48.165 75.9296C52.2182 76.0029 54.6138 78.9091 56.7046 85.4756C58.1055 89.8679 58.9927 92.1902 60.0676 96.4364C60.18 96.899 60.4314 97.1808 60.7182 97.121C60.9338 97.0784 61.0784 96.8766 61.2057 95.9834C61.5972 96.2215 61.7878 96.3417 62.1646 96.5637C62.1641 99.3956 61.3752 100.401 59.6073 100.83C57.8393 101.26 56.2736 100.308 55.0946 97.4489L55.0968 97.4581Z" fill="#F7931E"/>
<path d="M50.1259 87.1429C51.1018 86.4648 52.8975 85.3523 54.0314 84.7044C54.306 85.5686 54.4444 86.0053 54.7189 86.8694C53.5624 87.6012 52.3076 88.4157 51.7143 89.2066C51.1548 89.9598 50.6451 91.7593 51.5409 94.5596C52.3533 97.1058 53.28 98.174 54.0613 98.0233C54.4112 97.9579 54.6994 97.5939 55.0321 96.7488C55.3613 95.9339 55.5401 95.5181 55.8512 94.7173C56.0237 94.94 56.106 95.0572 56.2785 95.2798C56.0561 96.4019 55.9055 96.9775 55.7046 98.0551C55.2146 100.555 55.0575 101.946 53.1371 102.412C51.2167 102.879 48.6378 101.477 47.3531 97.0764C46.1562 92.9481 46.2744 89.8034 50.1259 87.1429ZM55.0968 97.4581C53.6141 92.4194 52.6834 89.608 51.0079 84.3515C49.6272 80.0425 48.8057 78.6547 46.9907 78.7136C46.2638 78.7335 45.618 78.91 44.4876 79.5277C45.1183 78.5807 45.4348 78.1119 46.0791 77.2204C46.4943 78.5305 46.707 79.1843 47.1222 80.4944C48.4657 84.6949 47.8828 86.4142 46.6783 86.5501C45.5901 86.6773 44.3562 85.7621 43.6333 83.9389C41.9602 79.7107 43.4415 75.8428 48.165 75.9296C52.2182 76.0029 54.6138 78.9091 56.7046 85.4756C58.1055 89.8679 58.9927 92.1902 60.0676 96.4364C60.18 96.899 60.4314 97.1808 60.7182 97.121C60.9338 97.0784 61.0784 96.8766 61.2057 95.9834C61.5972 96.2215 61.7878 96.3417 62.1646 96.5637C62.1641 99.3956 61.3752 100.401 59.6073 100.83C57.8393 101.26 56.2736 100.308 55.0946 97.4489L55.0968 97.4581Z" fill="url(#paint2_linear_195_7853)" fill-opacity="0.2"/>
<path d="M70.1588 94.6994C70.6126 94.6185 70.9787 94.265 71.3269 93.661C71.6753 93.9879 71.8422 94.1433 72.1659 94.4566C71.7922 96.8599 70.4003 98.2172 68.358 98.7135C65.8787 99.3159 64.6235 98.2688 63.0582 93.3775C62.4855 91.5961 62.0985 90.2693 61.5257 88.488C60.5242 85.341 60.0133 83.77 59.0141 80.6323C58.3538 80.6164 58.0288 80.6072 57.3685 80.5913C56.9713 79.3552 56.78 78.7451 56.3828 77.5091C57.6471 77.3096 58.2827 77.2237 59.5357 77.0662C59.0406 77.7745 58.7953 78.1378 58.3013 78.8948C58.1397 75.6613 58.06 74.0933 57.9354 71.0566C59.3337 71.2753 60.0288 71.3906 61.3842 71.6099C62.3925 74.6964 62.9068 76.2372 63.9151 79.3237C65.6043 84.4593 66.4461 87.0376 68.1352 92.1731C68.7598 94.0791 69.4205 94.8494 70.1633 94.7179L70.1588 94.6994ZM65.9122 77.7998C66.3275 79.0217 66.5312 79.6385 66.9465 80.8604C64.9126 80.8157 63.8595 80.7776 61.7455 80.7132C61.3179 79.3964 61.103 78.7333 60.6832 77.4047C62.822 77.5709 63.8761 77.6576 65.9223 77.7973L65.9122 77.7998Z" fill="#F7931E"/>
<path d="M70.1588 94.6994C70.6126 94.6185 70.9787 94.265 71.3269 93.661C71.6753 93.9879 71.8422 94.1433 72.1659 94.4566C71.7922 96.8599 70.4003 98.2172 68.358 98.7135C65.8787 99.3159 64.6235 98.2688 63.0582 93.3775C62.4855 91.5961 62.0985 90.2693 61.5257 88.488C60.5242 85.341 60.0133 83.77 59.0141 80.6323C58.3538 80.6164 58.0288 80.6072 57.3685 80.5913C56.9713 79.3552 56.78 78.7451 56.3828 77.5091C57.6471 77.3096 58.2827 77.2237 59.5357 77.0662C59.0406 77.7745 58.7953 78.1378 58.3013 78.8948C58.1397 75.6613 58.06 74.0933 57.9354 71.0566C59.3337 71.2753 60.0288 71.3906 61.3842 71.6099C62.3925 74.6964 62.9068 76.2372 63.9151 79.3237C65.6043 84.4593 66.4461 87.0376 68.1352 92.1731C68.7598 94.0791 69.4205 94.8494 70.1633 94.7179L70.1588 94.6994ZM65.9122 77.7998C66.3275 79.0217 66.5312 79.6385 66.9465 80.8604C64.9126 80.8157 63.8595 80.7776 61.7455 80.7132C61.3179 79.3964 61.103 78.7333 60.6832 77.4047C62.822 77.5709 63.8761 77.6576 65.9223 77.7973L65.9122 77.7998Z" fill="url(#paint3_linear_195_7853)" fill-opacity="0.2"/>
<path d="M83.2054 83.0727C83.3763 83.7758 83.4706 84.2526 83.5241 84.9157C80.0633 87.4127 76.8374 87.5107 72.5749 87.9488C72.2631 87.0643 72.1101 86.6116 71.7983 85.7271C73.5874 85.6059 74.698 85.6593 76.7424 85.3487C78.1964 85.1326 78.3743 84.4034 77.7802 82.5783C76.9755 80.1086 75.9006 79.3605 75.0811 79.4421C74.029 79.541 73.8063 81.1041 75.6702 86.4715C77.2031 90.92 79.4432 92.5215 81.1087 91.8032C82.3836 91.2485 83.1219 89.9912 83.464 88.6538C83.9401 88.9301 84.1657 89.0614 84.4713 89.3007C83.8043 92.7552 81.4948 95.2075 79.0232 96.0629C75.2724 97.3663 72.5507 94.2258 70.2908 87.5828C67.9329 80.6696 70.5769 77.8224 74.8099 77.4405C79.4403 77.011 82.2454 79.0337 83.2257 83.0677L83.2054 83.0727Z" fill="#F7931E"/>
<path d="M83.2054 83.0727C83.3763 83.7758 83.4706 84.2526 83.5241 84.9157C80.0633 87.4127 76.8374 87.5107 72.5749 87.9488C72.2631 87.0643 72.1101 86.6116 71.7983 85.7271C73.5874 85.6059 74.698 85.6593 76.7424 85.3487C78.1964 85.1326 78.3743 84.4034 77.7802 82.5783C76.9755 80.1086 75.9006 79.3605 75.0811 79.4421C74.029 79.541 73.8063 81.1041 75.6702 86.4715C77.2031 90.92 79.4432 92.5215 81.1087 91.8032C82.3836 91.2485 83.1219 89.9912 83.464 88.6538C83.9401 88.9301 84.1657 89.0614 84.4713 89.3007C83.8043 92.7552 81.4948 95.2075 79.0232 96.0629C75.2724 97.3663 72.5507 94.2258 70.2908 87.5828C67.9329 80.6696 70.5769 77.8224 74.8099 77.4405C79.4403 77.011 82.2454 79.0337 83.2257 83.0677L83.2054 83.0727Z" fill="url(#paint4_linear_195_7853)" fill-opacity="0.2"/>
<path d="M22.7168 66.769C22.8141 67.6566 22.869 68.1038 22.9663 68.9914C22.5887 69.5633 22.3988 69.8446 22.0382 70.4418C21.8831 67.4125 21.8169 65.9 21.7216 62.8954C22.2593 62.5394 22.5168 62.3592 23.0318 61.9989C23.3067 64.8129 23.4442 66.2199 23.727 69.0221C23.1022 70.7907 22.1907 72.6192 21.0427 73.9173C18.6765 76.5794 16.2131 74.8557 13.1081 62.0783C10.0031 49.3009 12.214 42.6787 16.3342 42.187C18.207 41.9671 19.6526 42.2037 20.7785 42.8512C21.1166 45.6596 21.2845 47.0592 21.6125 49.8701C21.0613 50.2588 20.7609 50.4396 20.1307 50.7691C19.4878 48.0347 19.155 46.6654 18.4376 43.8903C19.0809 43.9692 19.3936 43.9716 19.9636 43.9703C20.0744 44.9134 20.1236 45.3816 20.2344 46.3247C19.195 45.0585 18.2948 44.5424 17.3374 44.7652C15.2477 45.2436 14.4113 49.9053 16.2651 59.7924C18.1077 69.6332 19.7805 71.9115 21.0661 70.7368C21.7067 70.1402 22.2194 68.6634 22.7145 66.7597L22.7168 66.769Z" fill="#FBB03B"/>
<path d="M22.7168 66.769C22.8141 67.6566 22.869 68.1038 22.9663 68.9914C22.5887 69.5633 22.3988 69.8446 22.0382 70.4418C21.8831 67.4125 21.8169 65.9 21.7216 62.8954C22.2593 62.5394 22.5168 62.3592 23.0318 61.9989C23.3067 64.8129 23.4442 66.2199 23.727 69.0221C23.1022 70.7907 22.1907 72.6192 21.0427 73.9173C18.6765 76.5794 16.2131 74.8557 13.1081 62.0783C10.0031 49.3009 12.214 42.6787 16.3342 42.187C18.207 41.9671 19.6526 42.2037 20.7785 42.8512C21.1166 45.6596 21.2845 47.0592 21.6125 49.8701C21.0613 50.2588 20.7609 50.4396 20.1307 50.7691C19.4878 48.0347 19.155 46.6654 18.4376 43.8903C19.0809 43.9692 19.3936 43.9716 19.9636 43.9703C20.0744 44.9134 20.1236 45.3816 20.2344 46.3247C19.195 45.0585 18.2948 44.5424 17.3374 44.7652C15.2477 45.2436 14.4113 49.9053 16.2651 59.7924C18.1077 69.6332 19.7805 71.9115 21.0661 70.7368C21.7067 70.1402 22.2194 68.6634 22.7145 66.7597L22.7168 66.769Z" fill="url(#paint5_linear_195_7853)" fill-opacity="0.2"/>
<path d="M22.4396 42.026C22.0889 41.6899 21.9433 41.6664 21.5966 41.7899C21.5094 40.988 21.4658 40.5871 21.3864 39.7734C22.6966 37.6815 23.2528 39.1729 25.1765 38.7642C25.3321 38.9616 25.42 39.0578 25.5959 39.2502C25.8612 41.4493 25.9447 42.6342 26.1525 44.906C26.4857 48.0488 26.6513 49.6155 26.9823 52.749C27.034 52.9618 27.0587 53.0636 27.1003 53.2789C27.3653 55.8307 27.5018 57.1008 27.7668 59.6526C28.0374 62.1835 28.4882 66.3854 28.7167 68.2112C27.3144 68.6401 26.6459 68.9006 25.3913 69.5386C25.2037 67.5265 24.7284 62.9582 24.4286 60.2189C23.64 52.9439 23.2383 49.2984 22.4497 42.0235L22.4396 42.026ZM29.1591 65.9578C29.2407 66.7806 29.2865 67.1908 29.3704 68.0229C27.3641 68.5791 26.4146 68.8784 24.7013 69.9316C24.6074 69.0138 24.5525 68.5666 24.4586 67.6487C24.9559 66.9498 25.2056 66.6931 25.7265 66.1354C26.369 65.9009 26.7077 65.7892 27.402 65.5911C28.0938 65.7365 28.4447 65.808 29.1591 65.9578ZM33.5959 53.3956C33.7068 55.4459 33.7644 56.4804 33.8855 58.5283C34.0353 61.1375 34.2818 65.2518 34.4245 67.0789C32.8634 67.2525 32.0957 67.3705 30.6281 67.7075C30.5 65.8965 30.1733 61.8506 29.9489 59.2889C29.7882 57.476 29.7089 56.5742 29.5481 54.7614C29.3572 52.603 29.0837 51.8758 28.3804 51.9487C27.6975 52.0167 26.9443 53.5226 26.5043 55.6088C26.1882 55.6366 26.0291 55.6459 25.7232 55.6713C25.5699 54.2877 25.4893 53.6018 25.336 52.2182C25.8552 52.2292 26.1329 52.2206 26.6984 52.2007C26.4631 52.738 26.3567 53.0088 26.144 53.5505C27.1206 48.6686 28.0821 47.7098 29.7415 47.4536C31.804 47.1287 33.3485 48.9679 33.6004 53.4141L33.5959 53.3956ZM33.1179 64.3588C33.9191 64.5561 34.3118 64.6664 35.1095 64.8939C35.1527 65.7359 35.1783 66.151 35.2215 66.993C32.9989 67.1902 31.8993 67.3594 29.8638 67.8834C29.7822 67.0606 29.7465 66.6479 29.6671 65.8343C30.2635 65.366 30.5651 65.1458 31.1988 64.6978C31.9596 64.5521 32.3525 64.486 33.1281 64.3564L33.1179 64.3588Z" fill="#FBB03B"/>
<path d="M22.4396 42.026C22.0889 41.6899 21.9433 41.6664 21.5966 41.7899C21.5094 40.988 21.4658 40.5871 21.3864 39.7734C22.6966 37.6815 23.2528 39.1729 25.1765 38.7642C25.3321 38.9616 25.42 39.0578 25.5959 39.2502C25.8612 41.4493 25.9447 42.6342 26.1525 44.906C26.4857 48.0488 26.6513 49.6155 26.9823 52.749C27.034 52.9618 27.0587 53.0636 27.1003 53.2789C27.3653 55.8307 27.5018 57.1008 27.7668 59.6526C28.0374 62.1835 28.4882 66.3854 28.7167 68.2112C27.3144 68.6401 26.6459 68.9006 25.3913 69.5386C25.2037 67.5265 24.7284 62.9582 24.4286 60.2189C23.64 52.9439 23.2383 49.2984 22.4497 42.0235L22.4396 42.026ZM29.1591 65.9578C29.2407 66.7806 29.2865 67.1908 29.3704 68.0229C27.3641 68.5791 26.4146 68.8784 24.7013 69.9316C24.6074 69.0138 24.5525 68.5666 24.4586 67.6487C24.9559 66.9498 25.2056 66.6931 25.7265 66.1354C26.369 65.9009 26.7077 65.7892 27.402 65.5911C28.0938 65.7365 28.4447 65.808 29.1591 65.9578ZM33.5959 53.3956C33.7068 55.4459 33.7644 56.4804 33.8855 58.5283C34.0353 61.1375 34.2818 65.2518 34.4245 67.0789C32.8634 67.2525 32.0957 67.3705 30.6281 67.7075C30.5 65.8965 30.1733 61.8506 29.9489 59.2889C29.7882 57.476 29.7089 56.5742 29.5481 54.7614C29.3572 52.603 29.0837 51.8758 28.3804 51.9487C27.6975 52.0167 26.9443 53.5226 26.5043 55.6088C26.1882 55.6366 26.0291 55.6459 25.7232 55.6713C25.5699 54.2877 25.4893 53.6018 25.336 52.2182C25.8552 52.2292 26.1329 52.2206 26.6984 52.2007C26.4631 52.738 26.3567 53.0088 26.144 53.5505C27.1206 48.6686 28.0821 47.7098 29.7415 47.4536C31.804 47.1287 33.3485 48.9679 33.6004 53.4141L33.5959 53.3956ZM33.1179 64.3588C33.9191 64.5561 34.3118 64.6664 35.1095 64.8939C35.1527 65.7359 35.1783 66.151 35.2215 66.993C32.9989 67.1902 31.8993 67.3594 29.8638 67.8834C29.7822 67.0606 29.7465 66.6479 29.6671 65.8343C30.2635 65.366 30.5651 65.1458 31.1988 64.6978C31.9596 64.5521 32.3525 64.486 33.1281 64.3564L33.1179 64.3588Z" fill="url(#paint6_linear_195_7853)" fill-opacity="0.2"/>
<path d="M45.3978 53.9181C45.4544 54.9038 45.4854 55.5626 45.4574 56.4218C42.3823 56.9633 40.0647 56.1939 37.0187 56.9439C36.9643 55.9675 36.9309 55.4758 36.8766 54.4994C38.1287 54.1167 38.941 54.5366 40.4332 54.4778C41.4987 54.4344 41.7557 53.6763 41.645 51.4495C41.4922 48.4294 40.8656 47.4451 40.2684 47.5118C39.5121 47.5878 39.0882 49.386 39.4636 55.6247C39.7701 60.7827 41.1811 62.958 42.5807 62.9609C43.6575 62.9638 44.3751 62.0643 44.8843 60.7941C45.2425 61.4714 45.4239 61.8192 45.7889 62.5242C45.1317 66.329 43.5671 67.7283 41.4542 67.6244C38.2635 67.4689 35.8225 63.6233 35.4533 56.7462C35.0653 49.5699 37.4 45.5828 40.4141 45.1443C43.7093 44.6669 45.0433 48.2524 45.4 53.9273L45.3978 53.9181Z" fill="#FBB03B"/>
<path d="M45.3978 53.9181C45.4544 54.9038 45.4854 55.5626 45.4574 56.4218C42.3823 56.9633 40.0647 56.1939 37.0187 56.9439C36.9643 55.9675 36.9309 55.4758 36.8766 54.4994C38.1287 54.1167 38.941 54.5366 40.4332 54.4778C41.4987 54.4344 41.7557 53.6763 41.645 51.4495C41.4922 48.4294 40.8656 47.4451 40.2684 47.5118C39.5121 47.5878 39.0882 49.386 39.4636 55.6247C39.7701 60.7827 41.1811 62.958 42.5807 62.9609C43.6575 62.9638 44.3751 62.0643 44.8843 60.7941C45.2425 61.4714 45.4239 61.8192 45.7889 62.5242C45.1317 66.329 43.5671 67.7283 41.4542 67.6244C38.2635 67.4689 35.8225 63.6233 35.4533 56.7462C35.0653 49.5699 37.4 45.5828 40.4141 45.1443C43.7093 44.6669 45.0433 48.2524 45.4 53.9273L45.3978 53.9181Z" fill="url(#paint7_linear_195_7853)" fill-opacity="0.2"/>
<path d="M56.0957 54.7187C56.1906 55.7735 56.2385 56.4576 56.2579 57.3347C53.3797 56.2508 51.7358 56.7483 48.1873 56.5817C48.1285 55.4986 48.0918 54.949 48.0229 53.8683C49.5173 53.9069 50.3175 53.879 51.7556 53.7745C52.7918 53.699 53.0038 52.844 52.8708 50.2601C52.6971 46.7552 52.1304 45.6191 51.5772 45.7339C50.8717 45.8858 50.4407 48.009 50.8005 55.1138C51.0984 60.9892 52.5136 63.5359 53.8804 63.6251C54.93 63.6934 55.5132 62.905 55.9218 61.7082C56.272 62.5736 56.4612 62.9979 56.8272 63.8399C56.3709 67.6743 54.9043 69.2555 52.7882 68.9172C49.5753 68.4045 46.888 63.5899 46.4069 55.8091C45.9002 47.7014 48.9437 43.7087 51.6917 42.9723C54.6937 42.1742 55.5283 48.6639 56.0957 54.7187Z" fill="#FBB03B"/>
<path d="M56.0957 54.7187C56.1906 55.7735 56.2385 56.4576 56.2579 57.3347C53.3797 56.2508 51.7358 56.7483 48.1873 56.5817C48.1285 55.4986 48.0918 54.949 48.0229 53.8683C49.5173 53.9069 50.3175 53.879 51.7556 53.7745C52.7918 53.699 53.0038 52.844 52.8708 50.2601C52.6971 46.7552 52.1304 45.6191 51.5772 45.7339C50.8717 45.8858 50.4407 48.009 50.8005 55.1138C51.0984 60.9892 52.5136 63.5359 53.8804 63.6251C54.93 63.6934 55.5132 62.905 55.9218 61.7082C56.272 62.5736 56.4612 62.9979 56.8272 63.8399C56.3709 67.6743 54.9043 69.2555 52.7882 68.9172C49.5753 68.4045 46.888 63.5899 46.4069 55.8091C45.9002 47.7014 48.9437 43.7087 51.6917 42.9723C54.6937 42.1742 55.5283 48.6639 56.0957 54.7187Z" fill="url(#paint8_linear_195_7853)" fill-opacity="0.2"/>
<path d="M58.152 58.9318C58.0122 57.692 57.9473 57.0709 57.8198 55.8378C57.529 53.1355 57.4237 52.3478 57.1671 50.3622C56.7453 50.0434 56.5333 49.8793 56.1476 49.5321C56.0683 48.7185 56.0224 48.3083 55.943 47.4947C57.306 46.8597 58.1394 46.4808 59.9127 45.1876C60.0954 45.4078 60.1855 45.5133 60.3682 45.7334C60.6909 48.1243 60.8523 49.3197 61.1671 51.7223C61.5004 54.865 61.6557 56.4342 61.989 59.577C62.3077 62.6155 62.8592 67.6748 63.1291 69.8923C61.6101 69.6637 60.8224 69.522 59.2244 69.2342C59.0222 67.0296 58.4933 61.9747 58.1599 58.9201L58.152 58.9318ZM58.0204 66.5382C58.7035 66.2938 59.0423 66.1821 59.7231 65.9284C60.8291 66.1398 61.3888 66.2292 62.479 66.3758C63.2314 66.8593 63.6104 67.0905 64.338 67.5604C64.434 68.5757 64.4821 69.0834 64.5804 70.1079C62.1788 69.7901 60.8844 69.5559 58.2809 69.0715C58.1747 68.0587 58.1267 67.551 58.0227 66.5474L58.0204 66.5382ZM59.4909 52.9723C60.1635 53.0832 60.5156 53.1152 61.2007 53.1447C61.1955 53.8319 61.1929 54.1754 61.1956 54.8509C60.754 48.2951 62.054 45.0984 63.3399 44.7663C64.3944 44.5003 65.33 45.6937 65.6679 48.7668C65.9722 51.5246 65.3665 53.416 64.5029 53.5377C63.7838 53.634 63.1977 52.8162 62.4624 50.9861C62.1269 50.1368 61.9479 49.71 61.5999 48.8538C61.9675 49.3035 62.1523 49.5329 62.5176 49.9733C62.0694 51.2286 61.5769 53.8959 61.6568 56.483C60.9121 56.2524 60.533 56.1094 59.803 55.8066C59.6777 54.671 59.6162 54.1079 59.4909 52.9723Z" fill="#FBB03B"/>
<path d="M58.152 58.9318C58.0122 57.692 57.9473 57.0709 57.8198 55.8378C57.529 53.1355 57.4237 52.3478 57.1671 50.3622C56.7453 50.0434 56.5333 49.8793 56.1476 49.5321C56.0683 48.7185 56.0224 48.3083 55.943 47.4947C57.306 46.8597 58.1394 46.4808 59.9127 45.1876C60.0954 45.4078 60.1855 45.5133 60.3682 45.7334C60.6909 48.1243 60.8523 49.3197 61.1671 51.7223C61.5004 54.865 61.6557 56.4342 61.989 59.577C62.3077 62.6155 62.8592 67.6748 63.1291 69.8923C61.6101 69.6637 60.8224 69.522 59.2244 69.2342C59.0222 67.0296 58.4933 61.9747 58.1599 58.9201L58.152 58.9318ZM58.0204 66.5382C58.7035 66.2938 59.0423 66.1821 59.7231 65.9284C60.8291 66.1398 61.3888 66.2292 62.479 66.3758C63.2314 66.8593 63.6104 67.0905 64.338 67.5604C64.434 68.5757 64.4821 69.0834 64.5804 70.1079C62.1788 69.7901 60.8844 69.5559 58.2809 69.0715C58.1747 68.0587 58.1267 67.551 58.0227 66.5474L58.0204 66.5382ZM59.4909 52.9723C60.1635 53.0832 60.5156 53.1152 61.2007 53.1447C61.1955 53.8319 61.1929 54.1754 61.1956 54.8509C60.754 48.2951 62.054 45.0984 63.3399 44.7663C64.3944 44.5003 65.33 45.6937 65.6679 48.7668C65.9722 51.5246 65.3665 53.416 64.5029 53.5377C63.7838 53.634 63.1977 52.8162 62.4624 50.9861C62.1269 50.1368 61.9479 49.71 61.5999 48.8538C61.9675 49.3035 62.1523 49.5329 62.5176 49.9733C62.0694 51.2286 61.5769 53.8959 61.6568 56.483C60.9121 56.2524 60.533 56.1094 59.803 55.8066C59.6777 54.671 59.6162 54.1079 59.4909 52.9723Z" fill="url(#paint9_linear_195_7853)" fill-opacity="0.2"/>
<path d="M67.851 68.7745C67.6256 66.0758 67.5242 64.7286 67.2966 62.0207C68.0857 61.9466 68.4808 61.8898 69.2394 61.7348C69.7828 64.7677 70.068 66.2956 70.653 69.3674C70.0484 69.0048 69.7461 68.8235 69.1595 68.4467C69.0588 67.5011 69.0074 67.0237 68.8966 66.0805C70.1109 67.4022 71.0075 68.125 72.0258 67.9755C73.158 67.8082 73.659 66.8144 73.2322 64.6154C72.9358 63.0412 72.4549 61.9921 70.9882 61.3588C70.4974 61.1547 70.2458 61.0493 69.7403 60.8292C68.0051 60.0652 66.8058 57.2113 66.3979 53.097C65.868 47.8169 67.3364 43.2761 68.4422 41.3612C68.9125 40.5512 69.1212 40.6572 70.6474 41.668C71.2271 44.4079 71.5271 45.7754 72.1046 48.5061C71.3007 48.8288 71.024 48.9744 70.6951 49.4365C69.927 46.4974 69.5696 45.0263 68.9065 42.1204C69.1827 42.4158 69.3079 42.5324 69.5288 42.8217C69.7547 43.7956 69.8615 44.2792 70.0874 45.2532C69.6198 44.4359 69.462 44.2293 68.9885 44.8049C68.6167 45.2676 68.357 46.5458 68.626 48.4499C68.793 49.6244 69.1611 50.652 70.2465 51.0447C70.5986 51.1649 70.7678 51.2414 71.0804 51.332C72.3634 51.6963 74.5308 54.8147 75.6842 59.5611C77.4065 66.6484 76.0929 70.985 72.5451 71.3083C70.8711 71.4603 69.2816 70.5433 67.8589 68.7627L67.851 68.7745Z" fill="#FBB03B"/>
<path d="M67.851 68.7745C67.6256 66.0758 67.5242 64.7286 67.2966 62.0207C68.0857 61.9466 68.4808 61.8898 69.2394 61.7348C69.7828 64.7677 70.068 66.2956 70.653 69.3674C70.0484 69.0048 69.7461 68.8235 69.1595 68.4467C69.0588 67.5011 69.0074 67.0237 68.8966 66.0805C70.1109 67.4022 71.0075 68.125 72.0258 67.9755C73.158 67.8082 73.659 66.8144 73.2322 64.6154C72.9358 63.0412 72.4549 61.9921 70.9882 61.3588C70.4974 61.1547 70.2458 61.0493 69.7403 60.8292C68.0051 60.0652 66.8058 57.2113 66.3979 53.097C65.868 47.8169 67.3364 43.2761 68.4422 41.3612C68.9125 40.5512 69.1212 40.6572 70.6474 41.668C71.2271 44.4079 71.5271 45.7754 72.1046 48.5061C71.3007 48.8288 71.024 48.9744 70.6951 49.4365C69.927 46.4974 69.5696 45.0263 68.9065 42.1204C69.1827 42.4158 69.3079 42.5324 69.5288 42.8217C69.7547 43.7956 69.8615 44.2792 70.0874 45.2532C69.6198 44.4359 69.462 44.2293 68.9885 44.8049C68.6167 45.2676 68.357 46.5458 68.626 48.4499C68.793 49.6244 69.1611 50.652 70.2465 51.0447C70.5986 51.1649 70.7678 51.2414 71.0804 51.332C72.3634 51.6963 74.5308 54.8147 75.6842 59.5611C77.4065 66.6484 76.0929 70.985 72.5451 71.3083C70.8711 71.4603 69.2816 70.5433 67.8589 68.7627L67.851 68.7745Z" fill="url(#paint10_linear_195_7853)" fill-opacity="0.2"/>
<defs>
<linearGradient id="paint0_linear_195_7853" x1="63.1245" y1="4.48762" x2="16.3302" y2="42.0943" gradientUnits="userSpaceOnUse">
<stop stop-color="white" stop-opacity="0"/>
<stop offset="1" stop-color="#3564DE"/>
</linearGradient>
<linearGradient id="paint1_linear_195_7853" x1="32.0014" y1="69.2218" x2="8.8553" y2="84.2048" gradientUnits="userSpaceOnUse">
<stop stop-color="#FF0000"/>
<stop offset="1" stop-color="white" stop-opacity="0"/>
</linearGradient>
<linearGradient id="paint2_linear_195_7853" x1="51.3181" y1="75.0427" x2="35.5991" y2="84.4572" gradientUnits="userSpaceOnUse">
<stop stop-color="#FF0000"/>
<stop offset="1" stop-color="white" stop-opacity="0"/>
</linearGradient>
<linearGradient id="paint3_linear_195_7853" x1="62.0608" y1="70.1935" x2="49.4087" y2="76.3149" gradientUnits="userSpaceOnUse">
<stop stop-color="#FF0000"/>
<stop offset="1" stop-color="white" stop-opacity="0"/>
</linearGradient>
<linearGradient id="paint4_linear_195_7853" x1="76.6509" y1="76.9777" x2="63.4648" y2="86.3367" gradientUnits="userSpaceOnUse">
<stop stop-color="#FF0000"/>
<stop offset="1" stop-color="white" stop-opacity="0"/>
</linearGradient>
<linearGradient id="paint5_linear_195_7853" x1="16.2018" y1="42.3447" x2="2.72185" y2="48.7009" gradientUnits="userSpaceOnUse">
<stop stop-color="#FF5C00"/>
<stop offset="1" stop-color="white" stop-opacity="0"/>
</linearGradient>
<linearGradient id="paint6_linear_195_7853" x1="25.4011" y1="38.119" x2="11.2494" y2="45.2325" gradientUnits="userSpaceOnUse">
<stop stop-color="#FF5C00"/>
<stop offset="1" stop-color="white" stop-opacity="0"/>
</linearGradient>
<linearGradient id="paint7_linear_195_7853" x1="39.6346" y1="45.4222" x2="27.6652" y2="52.165" gradientUnits="userSpaceOnUse">
<stop stop-color="#FF5C00"/>
<stop offset="1" stop-color="white" stop-opacity="0"/>
</linearGradient>
<linearGradient id="paint8_linear_195_7853" x1="50.0805" y1="43.4856" x2="38.0471" y2="49.6184" gradientUnits="userSpaceOnUse">
<stop stop-color="#FF5C00"/>
<stop offset="1" stop-color="white" stop-opacity="0"/>
</linearGradient>
<linearGradient id="paint9_linear_195_7853" x1="60.43" y1="45.1823" x2="47.4131" y2="52.2717" gradientUnits="userSpaceOnUse">
<stop stop-color="#FF5C00"/>
<stop offset="1" stop-color="white" stop-opacity="0"/>
</linearGradient>
<linearGradient id="paint10_linear_195_7853" x1="67.6133" y1="41.3042" x2="56.4321" y2="46.2362" gradientUnits="userSpaceOnUse">
<stop stop-color="#FF5C00"/>
<stop offset="1" stop-color="white" stop-opacity="0"/>
</linearGradient>
</defs>
</svg>
