<svg width="155" height="37" viewBox="0 0 155 37" fill="none" xmlns="http://www.w3.org/2000/svg">
<path d="M3.95375 23.5637H9.16475V25.5617H1.53275V12.5477H3.95375V23.5637ZM14.3136 16.1837C15.0036 16.1837 15.6276 16.2947 16.1856 16.5167C16.7496 16.7387 17.2296 17.0537 17.6256 17.4617C18.0216 17.8697 18.3276 18.3677 18.5436 18.9557C18.7596 19.5437 18.8676 20.2007 18.8676 20.9267C18.8676 21.6587 18.7596 22.3187 18.5436 22.9067C18.3276 23.4947 18.0216 23.9957 17.6256 24.4097C17.2296 24.8237 16.7496 25.1417 16.1856 25.3637C15.6276 25.5857 15.0036 25.6967 14.3136 25.6967C13.6236 25.6967 12.9966 25.5857 12.4326 25.3637C11.8686 25.1417 11.3856 24.8237 10.9836 24.4097C10.5876 23.9957 10.2786 23.4947 10.0566 22.9067C9.84059 22.3187 9.73259 21.6587 9.73259 20.9267C9.73259 20.2007 9.84059 19.5437 10.0566 18.9557C10.2786 18.3677 10.5876 17.8697 10.9836 17.4617C11.3856 17.0537 11.8686 16.7387 12.4326 16.5167C12.9966 16.2947 13.6236 16.1837 14.3136 16.1837ZM14.3136 23.9867C15.0816 23.9867 15.6486 23.7287 16.0146 23.2127C16.3866 22.6967 16.5726 21.9407 16.5726 20.9447C16.5726 19.9487 16.3866 19.1897 16.0146 18.6677C15.6486 18.1457 15.0816 17.8847 14.3136 17.8847C13.5336 17.8847 12.9576 18.1487 12.5856 18.6767C12.2136 19.1987 12.0276 19.9547 12.0276 20.9447C12.0276 21.9347 12.2136 22.6907 12.5856 23.2127C12.9576 23.7287 13.5336 23.9867 14.3136 23.9867ZM23.7971 16.1657C24.1931 16.1657 24.5651 16.2077 24.9131 16.2917C25.2611 16.3697 25.5791 16.4867 25.8671 16.6427H28.5221V17.4707C28.5221 17.6087 28.4861 17.7167 28.4141 17.7947C28.3421 17.8727 28.2191 17.9267 28.0451 17.9567L27.2171 18.1097C27.2771 18.2657 27.3221 18.4307 27.3521 18.6047C27.3881 18.7787 27.4061 18.9617 27.4061 19.1537C27.4061 19.6097 27.3131 20.0237 27.1271 20.3957C26.9471 20.7617 26.6951 21.0737 26.3711 21.3317C26.0531 21.5897 25.6721 21.7907 25.2281 21.9347C24.7901 22.0727 24.3131 22.1417 23.7971 22.1417C23.4491 22.1417 23.1101 22.1087 22.7801 22.0427C22.4921 22.2167 22.3481 22.4117 22.3481 22.6277C22.3481 22.8137 22.4321 22.9517 22.6001 23.0417C22.7741 23.1257 22.9991 23.1857 23.2751 23.2217C23.5571 23.2577 23.8751 23.2817 24.2291 23.2937C24.5831 23.2997 24.9461 23.3177 25.3181 23.3477C25.6901 23.3777 26.0531 23.4317 26.4071 23.5097C26.7611 23.5817 27.0761 23.6987 27.3521 23.8607C27.6341 24.0227 27.8591 24.2447 28.0271 24.5267C28.2011 24.8027 28.2881 25.1597 28.2881 25.5977C28.2881 26.0057 28.1861 26.4017 27.9821 26.7857C27.7841 27.1697 27.4931 27.5117 27.1091 27.8117C26.7311 28.1117 26.2661 28.3517 25.7141 28.5317C25.1621 28.7177 24.5321 28.8107 23.8241 28.8107C23.1221 28.8107 22.5131 28.7417 21.9971 28.6037C21.4811 28.4717 21.0521 28.2917 20.7101 28.0637C20.3741 27.8417 20.1221 27.5837 19.9541 27.2897C19.7861 26.9957 19.7021 26.6897 19.7021 26.3717C19.7021 25.9397 19.8341 25.5767 20.0981 25.2827C20.3621 24.9887 20.7281 24.7547 21.1961 24.5807C20.9681 24.4547 20.7851 24.2867 20.6471 24.0767C20.5091 23.8667 20.4401 23.5937 20.4401 23.2577C20.4401 23.1197 20.4641 22.9787 20.5121 22.8347C20.5601 22.6847 20.6321 22.5377 20.7281 22.3937C20.8301 22.2497 20.9561 22.1147 21.1061 21.9887C21.2561 21.8567 21.4331 21.7397 21.6371 21.6377C21.1691 21.3857 20.8001 21.0497 20.5301 20.6297C20.2661 20.2097 20.1341 19.7177 20.1341 19.1537C20.1341 18.6977 20.2241 18.2867 20.4041 17.9207C20.5901 17.5487 20.8451 17.2337 21.1691 16.9757C21.4991 16.7117 21.8861 16.5107 22.3301 16.3727C22.7801 16.2347 23.2691 16.1657 23.7971 16.1657ZM26.2361 25.9757C26.2361 25.7957 26.1821 25.6487 26.0741 25.5347C25.9661 25.4207 25.8191 25.3337 25.6331 25.2737C25.4471 25.2077 25.2281 25.1597 24.9761 25.1297C24.7301 25.0997 24.4661 25.0787 24.1841 25.0667C23.9081 25.0487 23.6201 25.0337 23.3201 25.0217C23.0261 25.0037 22.7411 24.9767 22.4651 24.9407C22.2131 25.0787 22.0091 25.2437 21.8531 25.4357C21.7031 25.6217 21.6281 25.8377 21.6281 26.0837C21.6281 26.2457 21.6671 26.3957 21.7451 26.5337C21.8291 26.6777 21.9581 26.8007 22.1321 26.9027C22.3121 27.0047 22.5431 27.0827 22.8251 27.1367C23.1071 27.1967 23.4521 27.2267 23.8601 27.2267C24.2741 27.2267 24.6311 27.1937 24.9311 27.1277C25.2311 27.0677 25.4771 26.9807 25.6691 26.8667C25.8671 26.7587 26.0111 26.6267 26.1011 26.4707C26.1911 26.3207 26.2361 26.1557 26.2361 25.9757ZM23.7971 20.7197C24.0731 20.7197 24.3131 20.6837 24.5171 20.6117C24.7211 20.5337 24.8891 20.4287 25.0211 20.2967C25.1591 20.1647 25.2611 20.0057 25.3271 19.8197C25.3991 19.6337 25.4351 19.4297 25.4351 19.2077C25.4351 18.7517 25.2971 18.3917 25.0211 18.1277C24.7511 17.8577 24.3431 17.7227 23.7971 17.7227C23.2511 17.7227 22.8401 17.8577 22.5641 18.1277C22.2941 18.3917 22.1591 18.7517 22.1591 19.2077C22.1591 19.4237 22.1921 19.6247 22.2581 19.8107C22.3301 19.9967 22.4321 20.1587 22.5641 20.2967C22.7021 20.4287 22.8731 20.5337 23.0771 20.6117C23.2871 20.6837 23.5271 20.7197 23.7971 20.7197ZM32.2855 16.3277V25.5617H30.0625V16.3277H32.2855ZM32.6185 13.6367C32.6185 13.8287 32.5795 14.0087 32.5015 14.1767C32.4235 14.3447 32.3185 14.4917 32.1865 14.6177C32.0605 14.7437 31.9105 14.8457 31.7365 14.9237C31.5625 14.9957 31.3765 15.0317 31.1785 15.0317C30.9865 15.0317 30.8035 14.9957 30.6295 14.9237C30.4615 14.8457 30.3145 14.7437 30.1885 14.6177C30.0625 14.4917 29.9605 14.3447 29.8825 14.1767C29.8105 14.0087 29.7745 13.8287 29.7745 13.6367C29.7745 13.4387 29.8105 13.2527 29.8825 13.0787C29.9605 12.9047 30.0625 12.7547 30.1885 12.6287C30.3145 12.5027 30.4615 12.4037 30.6295 12.3317C30.8035 12.2537 30.9865 12.2147 31.1785 12.2147C31.3765 12.2147 31.5625 12.2537 31.7365 12.3317C31.9105 12.4037 32.0605 12.5027 32.1865 12.6287C32.3185 12.7547 32.4235 12.9047 32.5015 13.0787C32.5795 13.2527 32.6185 13.4387 32.6185 13.6367ZM34.8052 25.5617V16.3277H36.1642C36.4522 16.3277 36.6412 16.4627 36.7312 16.7327L36.8842 17.4617C37.0702 17.2697 37.2652 17.0957 37.4692 16.9397C37.6792 16.7837 37.8982 16.6487 38.1262 16.5347C38.3602 16.4207 38.6092 16.3337 38.8732 16.2737C39.1372 16.2137 39.4252 16.1837 39.7372 16.1837C40.2412 16.1837 40.6882 16.2707 41.0782 16.4447C41.4682 16.6127 41.7922 16.8527 42.0502 17.1647C42.3142 17.4707 42.5122 17.8397 42.6442 18.2717C42.7822 18.6977 42.8512 19.1687 42.8512 19.6847V25.5617H40.6282V19.6847C40.6282 19.1207 40.4962 18.6857 40.2322 18.3797C39.9742 18.0677 39.5842 17.9117 39.0622 17.9117C38.6782 17.9117 38.3182 17.9987 37.9822 18.1727C37.6462 18.3467 37.3282 18.5837 37.0282 18.8837V25.5617H34.8052ZM45.8097 25.5887C45.7557 25.7267 45.6867 25.8467 45.6027 25.9487C45.5187 26.0507 45.4227 26.1347 45.3147 26.2007C45.2067 26.2727 45.0927 26.3267 44.9727 26.3627C44.8527 26.3987 44.7357 26.4167 44.6217 26.4167H43.6857L48.9417 12.9707C49.0437 12.7187 49.1907 12.5267 49.3827 12.3947C49.5747 12.2567 49.8057 12.1877 50.0757 12.1877H51.0207L45.8097 25.5887ZM59.0976 14.9147C59.0316 15.0467 58.9536 15.1397 58.8636 15.1937C58.7796 15.2477 58.6776 15.2747 58.5576 15.2747C58.4376 15.2747 58.3026 15.2297 58.1526 15.1397C58.0026 15.0437 57.8256 14.9387 57.6216 14.8247C57.4176 14.7107 57.1776 14.6087 56.9016 14.5187C56.6316 14.4227 56.3106 14.3747 55.9386 14.3747C55.6026 14.3747 55.3086 14.4167 55.0566 14.5007C54.8106 14.5787 54.6006 14.6897 54.4266 14.8337C54.2586 14.9777 54.1326 15.1517 54.0486 15.3557C53.9646 15.5537 53.9226 15.7727 53.9226 16.0127C53.9226 16.3187 54.0066 16.5737 54.1746 16.7777C54.3486 16.9817 54.5766 17.1557 54.8586 17.2997C55.1406 17.4437 55.4616 17.5727 55.8216 17.6867C56.1816 17.8007 56.5476 17.9237 56.9196 18.0557C57.2976 18.1817 57.6666 18.3317 58.0266 18.5057C58.3866 18.6737 58.7076 18.8897 58.9896 19.1537C59.2716 19.4117 59.4966 19.7297 59.6646 20.1077C59.8386 20.4857 59.9256 20.9447 59.9256 21.4847C59.9256 22.0727 59.8236 22.6247 59.6196 23.1407C59.4216 23.6507 59.1276 24.0977 58.7376 24.4817C58.3536 24.8597 57.8826 25.1597 57.3246 25.3817C56.7666 25.5977 56.1276 25.7057 55.4076 25.7057C54.9936 25.7057 54.5856 25.6637 54.1836 25.5797C53.7816 25.5017 53.3946 25.3877 53.0226 25.2377C52.6566 25.0877 52.3116 24.9077 51.9876 24.6977C51.6696 24.4877 51.3846 24.2537 51.1326 23.9957L51.8346 22.8347C51.9006 22.7507 51.9786 22.6817 52.0686 22.6277C52.1646 22.5677 52.2696 22.5377 52.3836 22.5377C52.5336 22.5377 52.6956 22.6007 52.8696 22.7267C53.0436 22.8467 53.2476 22.9817 53.4816 23.1317C53.7216 23.2817 54.0006 23.4197 54.3186 23.5457C54.6426 23.6657 55.0296 23.7257 55.4796 23.7257C56.1696 23.7257 56.7036 23.5637 57.0816 23.2397C57.4596 22.9097 57.6486 22.4387 57.6486 21.8267C57.6486 21.4847 57.5616 21.2057 57.3876 20.9897C57.2196 20.7737 56.9946 20.5937 56.7126 20.4497C56.4306 20.2997 56.1096 20.1737 55.7496 20.0717C55.3896 19.9697 55.0236 19.8587 54.6516 19.7387C54.2796 19.6187 53.9136 19.4747 53.5536 19.3067C53.1936 19.1387 52.8726 18.9197 52.5906 18.6497C52.3086 18.3797 52.0806 18.0437 51.9066 17.6417C51.7386 17.2337 51.6546 16.7327 51.6546 16.1387C51.6546 15.6647 51.7476 15.2027 51.9336 14.7527C52.1256 14.3027 52.4016 13.9037 52.7616 13.5557C53.1276 13.2077 53.5746 12.9287 54.1026 12.7187C54.6306 12.5087 55.2336 12.4037 55.9116 12.4037C56.6796 12.4037 57.3876 12.5237 58.0356 12.7637C58.6836 13.0037 59.2356 13.3397 59.6916 13.7717L59.0976 14.9147ZM64.014 16.3277V25.5617H61.791V16.3277H64.014ZM64.347 13.6367C64.347 13.8287 64.308 14.0087 64.23 14.1767C64.152 14.3447 64.047 14.4917 63.915 14.6177C63.789 14.7437 63.639 14.8457 63.465 14.9237C63.291 14.9957 63.105 15.0317 62.907 15.0317C62.715 15.0317 62.532 14.9957 62.358 14.9237C62.19 14.8457 62.043 14.7437 61.917 14.6177C61.791 14.4917 61.689 14.3447 61.611 14.1767C61.539 14.0087 61.503 13.8287 61.503 13.6367C61.503 13.4387 61.539 13.2527 61.611 13.0787C61.689 12.9047 61.791 12.7547 61.917 12.6287C62.043 12.5027 62.19 12.4037 62.358 12.3317C62.532 12.2537 62.715 12.2147 62.907 12.2147C63.105 12.2147 63.291 12.2537 63.465 12.3317C63.639 12.4037 63.789 12.5027 63.915 12.6287C64.047 12.7547 64.152 12.9047 64.23 13.0787C64.308 13.2527 64.347 13.4387 64.347 13.6367ZM69.7287 16.1657C70.1247 16.1657 70.4967 16.2077 70.8447 16.2917C71.1927 16.3697 71.5107 16.4867 71.7987 16.6427H74.4537V17.4707C74.4537 17.6087 74.4177 17.7167 74.3457 17.7947C74.2737 17.8727 74.1507 17.9267 73.9767 17.9567L73.1487 18.1097C73.2087 18.2657 73.2537 18.4307 73.2837 18.6047C73.3197 18.7787 73.3377 18.9617 73.3377 19.1537C73.3377 19.6097 73.2447 20.0237 73.0587 20.3957C72.8787 20.7617 72.6267 21.0737 72.3027 21.3317C71.9847 21.5897 71.6037 21.7907 71.1597 21.9347C70.7217 22.0727 70.2447 22.1417 69.7287 22.1417C69.3807 22.1417 69.0417 22.1087 68.7117 22.0427C68.4237 22.2167 68.2797 22.4117 68.2797 22.6277C68.2797 22.8137 68.3637 22.9517 68.5317 23.0417C68.7057 23.1257 68.9307 23.1857 69.2067 23.2217C69.4887 23.2577 69.8067 23.2817 70.1607 23.2937C70.5147 23.2997 70.8777 23.3177 71.2497 23.3477C71.6217 23.3777 71.9847 23.4317 72.3387 23.5097C72.6927 23.5817 73.0077 23.6987 73.2837 23.8607C73.5657 24.0227 73.7907 24.2447 73.9587 24.5267C74.1327 24.8027 74.2197 25.1597 74.2197 25.5977C74.2197 26.0057 74.1177 26.4017 73.9137 26.7857C73.7157 27.1697 73.4247 27.5117 73.0407 27.8117C72.6627 28.1117 72.1977 28.3517 71.6457 28.5317C71.0937 28.7177 70.4637 28.8107 69.7557 28.8107C69.0537 28.8107 68.4447 28.7417 67.9287 28.6037C67.4127 28.4717 66.9837 28.2917 66.6417 28.0637C66.3057 27.8417 66.0537 27.5837 65.8857 27.2897C65.7177 26.9957 65.6337 26.6897 65.6337 26.3717C65.6337 25.9397 65.7657 25.5767 66.0297 25.2827C66.2937 24.9887 66.6597 24.7547 67.1277 24.5807C66.8997 24.4547 66.7167 24.2867 66.5787 24.0767C66.4407 23.8667 66.3717 23.5937 66.3717 23.2577C66.3717 23.1197 66.3957 22.9787 66.4437 22.8347C66.4917 22.6847 66.5637 22.5377 66.6597 22.3937C66.7617 22.2497 66.8877 22.1147 67.0377 21.9887C67.1877 21.8567 67.3647 21.7397 67.5687 21.6377C67.1007 21.3857 66.7317 21.0497 66.4617 20.6297C66.1977 20.2097 66.0657 19.7177 66.0657 19.1537C66.0657 18.6977 66.1557 18.2867 66.3357 17.9207C66.5217 17.5487 66.7767 17.2337 67.1007 16.9757C67.4307 16.7117 67.8177 16.5107 68.2617 16.3727C68.7117 16.2347 69.2007 16.1657 69.7287 16.1657ZM72.1677 25.9757C72.1677 25.7957 72.1137 25.6487 72.0057 25.5347C71.8977 25.4207 71.7507 25.3337 71.5647 25.2737C71.3787 25.2077 71.1597 25.1597 70.9077 25.1297C70.6617 25.0997 70.3977 25.0787 70.1157 25.0667C69.8397 25.0487 69.5517 25.0337 69.2517 25.0217C68.9577 25.0037 68.6727 24.9767 68.3967 24.9407C68.1447 25.0787 67.9407 25.2437 67.7847 25.4357C67.6347 25.6217 67.5597 25.8377 67.5597 26.0837C67.5597 26.2457 67.5987 26.3957 67.6767 26.5337C67.7607 26.6777 67.8897 26.8007 68.0637 26.9027C68.2437 27.0047 68.4747 27.0827 68.7567 27.1367C69.0387 27.1967 69.3837 27.2267 69.7917 27.2267C70.2057 27.2267 70.5627 27.1937 70.8627 27.1277C71.1627 27.0677 71.4087 26.9807 71.6007 26.8667C71.7987 26.7587 71.9427 26.6267 72.0327 26.4707C72.1227 26.3207 72.1677 26.1557 72.1677 25.9757ZM69.7287 20.7197C70.0047 20.7197 70.2447 20.6837 70.4487 20.6117C70.6527 20.5337 70.8207 20.4287 70.9527 20.2967C71.0907 20.1647 71.1927 20.0057 71.2587 19.8197C71.3307 19.6337 71.3667 19.4297 71.3667 19.2077C71.3667 18.7517 71.2287 18.3917 70.9527 18.1277C70.6827 17.8577 70.2747 17.7227 69.7287 17.7227C69.1827 17.7227 68.7717 17.8577 68.4957 18.1277C68.2257 18.3917 68.0907 18.7517 68.0907 19.2077C68.0907 19.4237 68.1237 19.6247 68.1897 19.8107C68.2617 19.9967 68.3637 20.1587 68.4957 20.2967C68.6337 20.4287 68.8047 20.5337 69.0087 20.6117C69.2187 20.6837 69.4587 20.7197 69.7287 20.7197ZM75.8501 25.5617V16.3277H77.2091C77.4971 16.3277 77.6861 16.4627 77.7761 16.7327L77.9291 17.4617C78.1151 17.2697 78.3101 17.0957 78.5141 16.9397C78.7241 16.7837 78.9431 16.6487 79.1711 16.5347C79.4051 16.4207 79.6541 16.3337 79.9181 16.2737C80.1821 16.2137 80.4701 16.1837 80.7821 16.1837C81.2861 16.1837 81.7331 16.2707 82.1231 16.4447C82.5131 16.6127 82.8371 16.8527 83.0951 17.1647C83.3591 17.4707 83.5571 17.8397 83.6891 18.2717C83.8271 18.6977 83.8961 19.1687 83.8961 19.6847V25.5617H81.6731V19.6847C81.6731 19.1207 81.5411 18.6857 81.2771 18.3797C81.0191 18.0677 80.6291 17.9117 80.1071 17.9117C79.7231 17.9117 79.3631 17.9987 79.0271 18.1727C78.6911 18.3467 78.3731 18.5837 78.0731 18.8837V25.5617H75.8501ZM91.595 16.3277V22.1957C91.595 22.7597 91.724 23.1977 91.982 23.5097C92.246 23.8157 92.639 23.9687 93.161 23.9687C93.545 23.9687 93.905 23.8847 94.241 23.7167C94.577 23.5427 94.895 23.3057 95.195 23.0057V16.3277H97.418V25.5617H96.059C95.771 25.5617 95.582 25.4267 95.492 25.1567L95.339 24.4187C95.147 24.6107 94.949 24.7877 94.745 24.9497C94.541 25.1057 94.322 25.2407 94.088 25.3547C93.86 25.4627 93.611 25.5467 93.341 25.6067C93.077 25.6727 92.792 25.7057 92.486 25.7057C91.982 25.7057 91.535 25.6217 91.145 25.4537C90.761 25.2797 90.437 25.0367 90.173 24.7247C89.909 24.4127 89.708 24.0437 89.57 23.6177C89.438 23.1857 89.372 22.7117 89.372 22.1957V16.3277H91.595ZM99.7915 28.5767V16.3277H101.151C101.295 16.3277 101.418 16.3607 101.52 16.4267C101.622 16.4927 101.688 16.5947 101.718 16.7327L101.898 17.5877C102.27 17.1617 102.696 16.8167 103.176 16.5527C103.662 16.2887 104.229 16.1567 104.877 16.1567C105.381 16.1567 105.84 16.2617 106.254 16.4717C106.674 16.6817 107.034 16.9877 107.334 17.3897C107.64 17.7857 107.874 18.2777 108.036 18.8657C108.204 19.4477 108.288 20.1167 108.288 20.8727C108.288 21.5627 108.195 22.2017 108.009 22.7897C107.823 23.3777 107.556 23.8877 107.208 24.3197C106.866 24.7517 106.449 25.0907 105.957 25.3367C105.471 25.5767 104.925 25.6967 104.319 25.6967C103.797 25.6967 103.353 25.6187 102.987 25.4627C102.627 25.3007 102.303 25.0787 102.015 24.7967V28.5767H99.7915ZM104.112 17.9117C103.65 17.9117 103.254 18.0107 102.924 18.2087C102.6 18.4007 102.297 18.6737 102.015 19.0277V23.1677C102.267 23.4797 102.54 23.6987 102.834 23.8247C103.134 23.9447 103.455 24.0047 103.797 24.0047C104.133 24.0047 104.436 23.9417 104.706 23.8157C104.982 23.6897 105.213 23.4977 105.399 23.2397C105.591 22.9817 105.738 22.6577 105.84 22.2677C105.942 21.8717 105.993 21.4067 105.993 20.8727C105.993 20.3327 105.948 19.8767 105.858 19.5047C105.774 19.1267 105.651 18.8207 105.489 18.5867C105.327 18.3527 105.129 18.1817 104.895 18.0737C104.667 17.9657 104.406 17.9117 104.112 17.9117Z" fill="#E8110E"/>
<path d="M3.95375 23.5637H9.16475V25.5617H1.53275V12.5477H3.95375V23.5637ZM14.3136 16.1837C15.0036 16.1837 15.6276 16.2947 16.1856 16.5167C16.7496 16.7387 17.2296 17.0537 17.6256 17.4617C18.0216 17.8697 18.3276 18.3677 18.5436 18.9557C18.7596 19.5437 18.8676 20.2007 18.8676 20.9267C18.8676 21.6587 18.7596 22.3187 18.5436 22.9067C18.3276 23.4947 18.0216 23.9957 17.6256 24.4097C17.2296 24.8237 16.7496 25.1417 16.1856 25.3637C15.6276 25.5857 15.0036 25.6967 14.3136 25.6967C13.6236 25.6967 12.9966 25.5857 12.4326 25.3637C11.8686 25.1417 11.3856 24.8237 10.9836 24.4097C10.5876 23.9957 10.2786 23.4947 10.0566 22.9067C9.84059 22.3187 9.73259 21.6587 9.73259 20.9267C9.73259 20.2007 9.84059 19.5437 10.0566 18.9557C10.2786 18.3677 10.5876 17.8697 10.9836 17.4617C11.3856 17.0537 11.8686 16.7387 12.4326 16.5167C12.9966 16.2947 13.6236 16.1837 14.3136 16.1837ZM14.3136 23.9867C15.0816 23.9867 15.6486 23.7287 16.0146 23.2127C16.3866 22.6967 16.5726 21.9407 16.5726 20.9447C16.5726 19.9487 16.3866 19.1897 16.0146 18.6677C15.6486 18.1457 15.0816 17.8847 14.3136 17.8847C13.5336 17.8847 12.9576 18.1487 12.5856 18.6767C12.2136 19.1987 12.0276 19.9547 12.0276 20.9447C12.0276 21.9347 12.2136 22.6907 12.5856 23.2127C12.9576 23.7287 13.5336 23.9867 14.3136 23.9867ZM23.7971 16.1657C24.1931 16.1657 24.5651 16.2077 24.9131 16.2917C25.2611 16.3697 25.5791 16.4867 25.8671 16.6427H28.5221V17.4707C28.5221 17.6087 28.4861 17.7167 28.4141 17.7947C28.3421 17.8727 28.2191 17.9267 28.0451 17.9567L27.2171 18.1097C27.2771 18.2657 27.3221 18.4307 27.3521 18.6047C27.3881 18.7787 27.4061 18.9617 27.4061 19.1537C27.4061 19.6097 27.3131 20.0237 27.1271 20.3957C26.9471 20.7617 26.6951 21.0737 26.3711 21.3317C26.0531 21.5897 25.6721 21.7907 25.2281 21.9347C24.7901 22.0727 24.3131 22.1417 23.7971 22.1417C23.4491 22.1417 23.1101 22.1087 22.7801 22.0427C22.4921 22.2167 22.3481 22.4117 22.3481 22.6277C22.3481 22.8137 22.4321 22.9517 22.6001 23.0417C22.7741 23.1257 22.9991 23.1857 23.2751 23.2217C23.5571 23.2577 23.8751 23.2817 24.2291 23.2937C24.5831 23.2997 24.9461 23.3177 25.3181 23.3477C25.6901 23.3777 26.0531 23.4317 26.4071 23.5097C26.7611 23.5817 27.0761 23.6987 27.3521 23.8607C27.6341 24.0227 27.8591 24.2447 28.0271 24.5267C28.2011 24.8027 28.2881 25.1597 28.2881 25.5977C28.2881 26.0057 28.1861 26.4017 27.9821 26.7857C27.7841 27.1697 27.4931 27.5117 27.1091 27.8117C26.7311 28.1117 26.2661 28.3517 25.7141 28.5317C25.1621 28.7177 24.5321 28.8107 23.8241 28.8107C23.1221 28.8107 22.5131 28.7417 21.9971 28.6037C21.4811 28.4717 21.0521 28.2917 20.7101 28.0637C20.3741 27.8417 20.1221 27.5837 19.9541 27.2897C19.7861 26.9957 19.7021 26.6897 19.7021 26.3717C19.7021 25.9397 19.8341 25.5767 20.0981 25.2827C20.3621 24.9887 20.7281 24.7547 21.1961 24.5807C20.9681 24.4547 20.7851 24.2867 20.6471 24.0767C20.5091 23.8667 20.4401 23.5937 20.4401 23.2577C20.4401 23.1197 20.4641 22.9787 20.5121 22.8347C20.5601 22.6847 20.6321 22.5377 20.7281 22.3937C20.8301 22.2497 20.9561 22.1147 21.1061 21.9887C21.2561 21.8567 21.4331 21.7397 21.6371 21.6377C21.1691 21.3857 20.8001 21.0497 20.5301 20.6297C20.2661 20.2097 20.1341 19.7177 20.1341 19.1537C20.1341 18.6977 20.2241 18.2867 20.4041 17.9207C20.5901 17.5487 20.8451 17.2337 21.1691 16.9757C21.4991 16.7117 21.8861 16.5107 22.3301 16.3727C22.7801 16.2347 23.2691 16.1657 23.7971 16.1657ZM26.2361 25.9757C26.2361 25.7957 26.1821 25.6487 26.0741 25.5347C25.9661 25.4207 25.8191 25.3337 25.6331 25.2737C25.4471 25.2077 25.2281 25.1597 24.9761 25.1297C24.7301 25.0997 24.4661 25.0787 24.1841 25.0667C23.9081 25.0487 23.6201 25.0337 23.3201 25.0217C23.0261 25.0037 22.7411 24.9767 22.4651 24.9407C22.2131 25.0787 22.0091 25.2437 21.8531 25.4357C21.7031 25.6217 21.6281 25.8377 21.6281 26.0837C21.6281 26.2457 21.6671 26.3957 21.7451 26.5337C21.8291 26.6777 21.9581 26.8007 22.1321 26.9027C22.3121 27.0047 22.5431 27.0827 22.8251 27.1367C23.1071 27.1967 23.4521 27.2267 23.8601 27.2267C24.2741 27.2267 24.6311 27.1937 24.9311 27.1277C25.2311 27.0677 25.4771 26.9807 25.6691 26.8667C25.8671 26.7587 26.0111 26.6267 26.1011 26.4707C26.1911 26.3207 26.2361 26.1557 26.2361 25.9757ZM23.7971 20.7197C24.0731 20.7197 24.3131 20.6837 24.5171 20.6117C24.7211 20.5337 24.8891 20.4287 25.0211 20.2967C25.1591 20.1647 25.2611 20.0057 25.3271 19.8197C25.3991 19.6337 25.4351 19.4297 25.4351 19.2077C25.4351 18.7517 25.2971 18.3917 25.0211 18.1277C24.7511 17.8577 24.3431 17.7227 23.7971 17.7227C23.2511 17.7227 22.8401 17.8577 22.5641 18.1277C22.2941 18.3917 22.1591 18.7517 22.1591 19.2077C22.1591 19.4237 22.1921 19.6247 22.2581 19.8107C22.3301 19.9967 22.4321 20.1587 22.5641 20.2967C22.7021 20.4287 22.8731 20.5337 23.0771 20.6117C23.2871 20.6837 23.5271 20.7197 23.7971 20.7197ZM32.2855 16.3277V25.5617H30.0625V16.3277H32.2855ZM32.6185 13.6367C32.6185 13.8287 32.5795 14.0087 32.5015 14.1767C32.4235 14.3447 32.3185 14.4917 32.1865 14.6177C32.0605 14.7437 31.9105 14.8457 31.7365 14.9237C31.5625 14.9957 31.3765 15.0317 31.1785 15.0317C30.9865 15.0317 30.8035 14.9957 30.6295 14.9237C30.4615 14.8457 30.3145 14.7437 30.1885 14.6177C30.0625 14.4917 29.9605 14.3447 29.8825 14.1767C29.8105 14.0087 29.7745 13.8287 29.7745 13.6367C29.7745 13.4387 29.8105 13.2527 29.8825 13.0787C29.9605 12.9047 30.0625 12.7547 30.1885 12.6287C30.3145 12.5027 30.4615 12.4037 30.6295 12.3317C30.8035 12.2537 30.9865 12.2147 31.1785 12.2147C31.3765 12.2147 31.5625 12.2537 31.7365 12.3317C31.9105 12.4037 32.0605 12.5027 32.1865 12.6287C32.3185 12.7547 32.4235 12.9047 32.5015 13.0787C32.5795 13.2527 32.6185 13.4387 32.6185 13.6367ZM34.8052 25.5617V16.3277H36.1642C36.4522 16.3277 36.6412 16.4627 36.7312 16.7327L36.8842 17.4617C37.0702 17.2697 37.2652 17.0957 37.4692 16.9397C37.6792 16.7837 37.8982 16.6487 38.1262 16.5347C38.3602 16.4207 38.6092 16.3337 38.8732 16.2737C39.1372 16.2137 39.4252 16.1837 39.7372 16.1837C40.2412 16.1837 40.6882 16.2707 41.0782 16.4447C41.4682 16.6127 41.7922 16.8527 42.0502 17.1647C42.3142 17.4707 42.5122 17.8397 42.6442 18.2717C42.7822 18.6977 42.8512 19.1687 42.8512 19.6847V25.5617H40.6282V19.6847C40.6282 19.1207 40.4962 18.6857 40.2322 18.3797C39.9742 18.0677 39.5842 17.9117 39.0622 17.9117C38.6782 17.9117 38.3182 17.9987 37.9822 18.1727C37.6462 18.3467 37.3282 18.5837 37.0282 18.8837V25.5617H34.8052ZM45.8097 25.5887C45.7557 25.7267 45.6867 25.8467 45.6027 25.9487C45.5187 26.0507 45.4227 26.1347 45.3147 26.2007C45.2067 26.2727 45.0927 26.3267 44.9727 26.3627C44.8527 26.3987 44.7357 26.4167 44.6217 26.4167H43.6857L48.9417 12.9707C49.0437 12.7187 49.1907 12.5267 49.3827 12.3947C49.5747 12.2567 49.8057 12.1877 50.0757 12.1877H51.0207L45.8097 25.5887ZM59.0976 14.9147C59.0316 15.0467 58.9536 15.1397 58.8636 15.1937C58.7796 15.2477 58.6776 15.2747 58.5576 15.2747C58.4376 15.2747 58.3026 15.2297 58.1526 15.1397C58.0026 15.0437 57.8256 14.9387 57.6216 14.8247C57.4176 14.7107 57.1776 14.6087 56.9016 14.5187C56.6316 14.4227 56.3106 14.3747 55.9386 14.3747C55.6026 14.3747 55.3086 14.4167 55.0566 14.5007C54.8106 14.5787 54.6006 14.6897 54.4266 14.8337C54.2586 14.9777 54.1326 15.1517 54.0486 15.3557C53.9646 15.5537 53.9226 15.7727 53.9226 16.0127C53.9226 16.3187 54.0066 16.5737 54.1746 16.7777C54.3486 16.9817 54.5766 17.1557 54.8586 17.2997C55.1406 17.4437 55.4616 17.5727 55.8216 17.6867C56.1816 17.8007 56.5476 17.9237 56.9196 18.0557C57.2976 18.1817 57.6666 18.3317 58.0266 18.5057C58.3866 18.6737 58.7076 18.8897 58.9896 19.1537C59.2716 19.4117 59.4966 19.7297 59.6646 20.1077C59.8386 20.4857 59.9256 20.9447 59.9256 21.4847C59.9256 22.0727 59.8236 22.6247 59.6196 23.1407C59.4216 23.6507 59.1276 24.0977 58.7376 24.4817C58.3536 24.8597 57.8826 25.1597 57.3246 25.3817C56.7666 25.5977 56.1276 25.7057 55.4076 25.7057C54.9936 25.7057 54.5856 25.6637 54.1836 25.5797C53.7816 25.5017 53.3946 25.3877 53.0226 25.2377C52.6566 25.0877 52.3116 24.9077 51.9876 24.6977C51.6696 24.4877 51.3846 24.2537 51.1326 23.9957L51.8346 22.8347C51.9006 22.7507 51.9786 22.6817 52.0686 22.6277C52.1646 22.5677 52.2696 22.5377 52.3836 22.5377C52.5336 22.5377 52.6956 22.6007 52.8696 22.7267C53.0436 22.8467 53.2476 22.9817 53.4816 23.1317C53.7216 23.2817 54.0006 23.4197 54.3186 23.5457C54.6426 23.6657 55.0296 23.7257 55.4796 23.7257C56.1696 23.7257 56.7036 23.5637 57.0816 23.2397C57.4596 22.9097 57.6486 22.4387 57.6486 21.8267C57.6486 21.4847 57.5616 21.2057 57.3876 20.9897C57.2196 20.7737 56.9946 20.5937 56.7126 20.4497C56.4306 20.2997 56.1096 20.1737 55.7496 20.0717C55.3896 19.9697 55.0236 19.8587 54.6516 19.7387C54.2796 19.6187 53.9136 19.4747 53.5536 19.3067C53.1936 19.1387 52.8726 18.9197 52.5906 18.6497C52.3086 18.3797 52.0806 18.0437 51.9066 17.6417C51.7386 17.2337 51.6546 16.7327 51.6546 16.1387C51.6546 15.6647 51.7476 15.2027 51.9336 14.7527C52.1256 14.3027 52.4016 13.9037 52.7616 13.5557C53.1276 13.2077 53.5746 12.9287 54.1026 12.7187C54.6306 12.5087 55.2336 12.4037 55.9116 12.4037C56.6796 12.4037 57.3876 12.5237 58.0356 12.7637C58.6836 13.0037 59.2356 13.3397 59.6916 13.7717L59.0976 14.9147ZM64.014 16.3277V25.5617H61.791V16.3277H64.014ZM64.347 13.6367C64.347 13.8287 64.308 14.0087 64.23 14.1767C64.152 14.3447 64.047 14.4917 63.915 14.6177C63.789 14.7437 63.639 14.8457 63.465 14.9237C63.291 14.9957 63.105 15.0317 62.907 15.0317C62.715 15.0317 62.532 14.9957 62.358 14.9237C62.19 14.8457 62.043 14.7437 61.917 14.6177C61.791 14.4917 61.689 14.3447 61.611 14.1767C61.539 14.0087 61.503 13.8287 61.503 13.6367C61.503 13.4387 61.539 13.2527 61.611 13.0787C61.689 12.9047 61.791 12.7547 61.917 12.6287C62.043 12.5027 62.19 12.4037 62.358 12.3317C62.532 12.2537 62.715 12.2147 62.907 12.2147C63.105 12.2147 63.291 12.2537 63.465 12.3317C63.639 12.4037 63.789 12.5027 63.915 12.6287C64.047 12.7547 64.152 12.9047 64.23 13.0787C64.308 13.2527 64.347 13.4387 64.347 13.6367ZM69.7287 16.1657C70.1247 16.1657 70.4967 16.2077 70.8447 16.2917C71.1927 16.3697 71.5107 16.4867 71.7987 16.6427H74.4537V17.4707C74.4537 17.6087 74.4177 17.7167 74.3457 17.7947C74.2737 17.8727 74.1507 17.9267 73.9767 17.9567L73.1487 18.1097C73.2087 18.2657 73.2537 18.4307 73.2837 18.6047C73.3197 18.7787 73.3377 18.9617 73.3377 19.1537C73.3377 19.6097 73.2447 20.0237 73.0587 20.3957C72.8787 20.7617 72.6267 21.0737 72.3027 21.3317C71.9847 21.5897 71.6037 21.7907 71.1597 21.9347C70.7217 22.0727 70.2447 22.1417 69.7287 22.1417C69.3807 22.1417 69.0417 22.1087 68.7117 22.0427C68.4237 22.2167 68.2797 22.4117 68.2797 22.6277C68.2797 22.8137 68.3637 22.9517 68.5317 23.0417C68.7057 23.1257 68.9307 23.1857 69.2067 23.2217C69.4887 23.2577 69.8067 23.2817 70.1607 23.2937C70.5147 23.2997 70.8777 23.3177 71.2497 23.3477C71.6217 23.3777 71.9847 23.4317 72.3387 23.5097C72.6927 23.5817 73.0077 23.6987 73.2837 23.8607C73.5657 24.0227 73.7907 24.2447 73.9587 24.5267C74.1327 24.8027 74.2197 25.1597 74.2197 25.5977C74.2197 26.0057 74.1177 26.4017 73.9137 26.7857C73.7157 27.1697 73.4247 27.5117 73.0407 27.8117C72.6627 28.1117 72.1977 28.3517 71.6457 28.5317C71.0937 28.7177 70.4637 28.8107 69.7557 28.8107C69.0537 28.8107 68.4447 28.7417 67.9287 28.6037C67.4127 28.4717 66.9837 28.2917 66.6417 28.0637C66.3057 27.8417 66.0537 27.5837 65.8857 27.2897C65.7177 26.9957 65.6337 26.6897 65.6337 26.3717C65.6337 25.9397 65.7657 25.5767 66.0297 25.2827C66.2937 24.9887 66.6597 24.7547 67.1277 24.5807C66.8997 24.4547 66.7167 24.2867 66.5787 24.0767C66.4407 23.8667 66.3717 23.5937 66.3717 23.2577C66.3717 23.1197 66.3957 22.9787 66.4437 22.8347C66.4917 22.6847 66.5637 22.5377 66.6597 22.3937C66.7617 22.2497 66.8877 22.1147 67.0377 21.9887C67.1877 21.8567 67.3647 21.7397 67.5687 21.6377C67.1007 21.3857 66.7317 21.0497 66.4617 20.6297C66.1977 20.2097 66.0657 19.7177 66.0657 19.1537C66.0657 18.6977 66.1557 18.2867 66.3357 17.9207C66.5217 17.5487 66.7767 17.2337 67.1007 16.9757C67.4307 16.7117 67.8177 16.5107 68.2617 16.3727C68.7117 16.2347 69.2007 16.1657 69.7287 16.1657ZM72.1677 25.9757C72.1677 25.7957 72.1137 25.6487 72.0057 25.5347C71.8977 25.4207 71.7507 25.3337 71.5647 25.2737C71.3787 25.2077 71.1597 25.1597 70.9077 25.1297C70.6617 25.0997 70.3977 25.0787 70.1157 25.0667C69.8397 25.0487 69.5517 25.0337 69.2517 25.0217C68.9577 25.0037 68.6727 24.9767 68.3967 24.9407C68.1447 25.0787 67.9407 25.2437 67.7847 25.4357C67.6347 25.6217 67.5597 25.8377 67.5597 26.0837C67.5597 26.2457 67.5987 26.3957 67.6767 26.5337C67.7607 26.6777 67.8897 26.8007 68.0637 26.9027C68.2437 27.0047 68.4747 27.0827 68.7567 27.1367C69.0387 27.1967 69.3837 27.2267 69.7917 27.2267C70.2057 27.2267 70.5627 27.1937 70.8627 27.1277C71.1627 27.0677 71.4087 26.9807 71.6007 26.8667C71.7987 26.7587 71.9427 26.6267 72.0327 26.4707C72.1227 26.3207 72.1677 26.1557 72.1677 25.9757ZM69.7287 20.7197C70.0047 20.7197 70.2447 20.6837 70.4487 20.6117C70.6527 20.5337 70.8207 20.4287 70.9527 20.2967C71.0907 20.1647 71.1927 20.0057 71.2587 19.8197C71.3307 19.6337 71.3667 19.4297 71.3667 19.2077C71.3667 18.7517 71.2287 18.3917 70.9527 18.1277C70.6827 17.8577 70.2747 17.7227 69.7287 17.7227C69.1827 17.7227 68.7717 17.8577 68.4957 18.1277C68.2257 18.3917 68.0907 18.7517 68.0907 19.2077C68.0907 19.4237 68.1237 19.6247 68.1897 19.8107C68.2617 19.9967 68.3637 20.1587 68.4957 20.2967C68.6337 20.4287 68.8047 20.5337 69.0087 20.6117C69.2187 20.6837 69.4587 20.7197 69.7287 20.7197ZM75.8501 25.5617V16.3277H77.2091C77.4971 16.3277 77.6861 16.4627 77.7761 16.7327L77.9291 17.4617C78.1151 17.2697 78.3101 17.0957 78.5141 16.9397C78.7241 16.7837 78.9431 16.6487 79.1711 16.5347C79.4051 16.4207 79.6541 16.3337 79.9181 16.2737C80.1821 16.2137 80.4701 16.1837 80.7821 16.1837C81.2861 16.1837 81.7331 16.2707 82.1231 16.4447C82.5131 16.6127 82.8371 16.8527 83.0951 17.1647C83.3591 17.4707 83.5571 17.8397 83.6891 18.2717C83.8271 18.6977 83.8961 19.1687 83.8961 19.6847V25.5617H81.6731V19.6847C81.6731 19.1207 81.5411 18.6857 81.2771 18.3797C81.0191 18.0677 80.6291 17.9117 80.1071 17.9117C79.7231 17.9117 79.3631 17.9987 79.0271 18.1727C78.6911 18.3467 78.3731 18.5837 78.0731 18.8837V25.5617H75.8501ZM91.595 16.3277V22.1957C91.595 22.7597 91.724 23.1977 91.982 23.5097C92.246 23.8157 92.639 23.9687 93.161 23.9687C93.545 23.9687 93.905 23.8847 94.241 23.7167C94.577 23.5427 94.895 23.3057 95.195 23.0057V16.3277H97.418V25.5617H96.059C95.771 25.5617 95.582 25.4267 95.492 25.1567L95.339 24.4187C95.147 24.6107 94.949 24.7877 94.745 24.9497C94.541 25.1057 94.322 25.2407 94.088 25.3547C93.86 25.4627 93.611 25.5467 93.341 25.6067C93.077 25.6727 92.792 25.7057 92.486 25.7057C91.982 25.7057 91.535 25.6217 91.145 25.4537C90.761 25.2797 90.437 25.0367 90.173 24.7247C89.909 24.4127 89.708 24.0437 89.57 23.6177C89.438 23.1857 89.372 22.7117 89.372 22.1957V16.3277H91.595ZM99.7915 28.5767V16.3277H101.151C101.295 16.3277 101.418 16.3607 101.52 16.4267C101.622 16.4927 101.688 16.5947 101.718 16.7327L101.898 17.5877C102.27 17.1617 102.696 16.8167 103.176 16.5527C103.662 16.2887 104.229 16.1567 104.877 16.1567C105.381 16.1567 105.84 16.2617 106.254 16.4717C106.674 16.6817 107.034 16.9877 107.334 17.3897C107.64 17.7857 107.874 18.2777 108.036 18.8657C108.204 19.4477 108.288 20.1167 108.288 20.8727C108.288 21.5627 108.195 22.2017 108.009 22.7897C107.823 23.3777 107.556 23.8877 107.208 24.3197C106.866 24.7517 106.449 25.0907 105.957 25.3367C105.471 25.5767 104.925 25.6967 104.319 25.6967C103.797 25.6967 103.353 25.6187 102.987 25.4627C102.627 25.3007 102.303 25.0787 102.015 24.7967V28.5767H99.7915ZM104.112 17.9117C103.65 17.9117 103.254 18.0107 102.924 18.2087C102.6 18.4007 102.297 18.6737 102.015 19.0277V23.1677C102.267 23.4797 102.54 23.6987 102.834 23.8247C103.134 23.9447 103.455 24.0047 103.797 24.0047C104.133 24.0047 104.436 23.9417 104.706 23.8157C104.982 23.6897 105.213 23.4977 105.399 23.2397C105.591 22.9817 105.738 22.6577 105.84 22.2677C105.942 21.8717 105.993 21.4067 105.993 20.8727C105.993 20.3327 105.948 19.8767 105.858 19.5047C105.774 19.1267 105.651 18.8207 105.489 18.5867C105.327 18.3527 105.129 18.1817 104.895 18.0737C104.667 17.9657 104.406 17.9117 104.112 17.9117Z" fill="url(#paint0_linear_195_8116)" fill-opacity="0.4"/>
<g clip-path="url(#clip0_195_8116)">
<path d="M135 0.561707C131.44 0.561707 127.96 1.61739 125 3.59525C122.04 5.57312 119.733 8.38434 118.37 11.6734C117.008 14.9625 116.651 18.5817 117.346 22.0733C118.04 25.565 119.755 28.7723 122.272 31.2896C124.789 33.807 127.997 35.5213 131.488 36.2158C134.98 36.9104 138.599 36.5539 141.888 35.1915C145.177 33.8292 147.989 31.5221 149.966 28.562C151.944 25.6019 153 22.1218 153 18.5617C153 13.7878 151.104 9.20944 147.728 5.83378C144.352 2.45813 139.774 0.561707 135 0.561707V0.561707ZM135 33.5617C132.033 33.5617 129.133 32.682 126.666 31.0338C124.2 29.3855 122.277 27.0429 121.142 24.302C120.007 21.5611 119.709 18.5451 120.288 15.6354C120.867 12.7256 122.296 10.0529 124.393 7.95511C126.491 5.85732 129.164 4.42871 132.074 3.84993C134.983 3.27115 137.999 3.5682 140.74 4.70351C143.481 5.83883 145.824 7.76142 147.472 10.2282C149.12 12.6949 150 15.595 150 18.5617C150 22.54 148.42 26.3553 145.607 29.1683C142.794 31.9814 138.978 33.5617 135 33.5617V33.5617Z" fill="#E8110E"/>
<path d="M135 0.561707C131.44 0.561707 127.96 1.61739 125 3.59525C122.04 5.57312 119.733 8.38434 118.37 11.6734C117.008 14.9625 116.651 18.5817 117.346 22.0733C118.04 25.565 119.755 28.7723 122.272 31.2896C124.789 33.807 127.997 35.5213 131.488 36.2158C134.98 36.9104 138.599 36.5539 141.888 35.1915C145.177 33.8292 147.989 31.5221 149.966 28.562C151.944 25.6019 153 22.1218 153 18.5617C153 13.7878 151.104 9.20944 147.728 5.83378C144.352 2.45813 139.774 0.561707 135 0.561707V0.561707ZM135 33.5617C132.033 33.5617 129.133 32.682 126.666 31.0338C124.2 29.3855 122.277 27.0429 121.142 24.302C120.007 21.5611 119.709 18.5451 120.288 15.6354C120.867 12.7256 122.296 10.0529 124.393 7.95511C126.491 5.85732 129.164 4.42871 132.074 3.84993C134.983 3.27115 137.999 3.5682 140.74 4.70351C143.481 5.83883 145.824 7.76142 147.472 10.2282C149.12 12.6949 150 15.595 150 18.5617C150 22.54 148.42 26.3553 145.607 29.1683C142.794 31.9814 138.978 33.5617 135 33.5617V33.5617Z" fill="url(#paint1_linear_195_8116)" fill-opacity="0.4"/>
</g>
<g clip-path="url(#clip1_195_8116)">
<path d="M135 18.5616C136.187 18.5616 137.347 18.2098 138.333 17.5505C139.32 16.8912 140.089 15.9541 140.543 14.8577C140.997 13.7614 141.116 12.555 140.885 11.3911C140.653 10.2272 140.082 9.15812 139.243 8.31901C138.404 7.47989 137.334 6.90845 136.171 6.67694C135.007 6.44543 133.8 6.56425 132.704 7.01837C131.608 7.4725 130.67 8.24153 130.011 9.22823C129.352 10.2149 129 11.375 129 12.5616C129.002 14.1525 129.634 15.6777 130.759 16.8025C131.884 17.9274 133.409 18.5601 135 18.5616ZM135 8.56165C135.791 8.56165 136.564 8.79624 137.222 9.23577C137.88 9.6753 138.393 10.3 138.696 11.0309C138.998 11.7618 139.077 12.5661 138.923 13.342C138.769 14.1179 138.388 14.8307 137.828 15.3901C137.269 15.9495 136.556 16.3304 135.78 16.4848C135.004 16.6391 134.2 16.5599 133.469 16.2572C132.738 15.9544 132.114 15.4417 131.674 14.7839C131.235 14.1261 131 13.3528 131 12.5616C131 11.5008 131.421 10.4834 132.172 9.73322C132.922 8.98308 133.939 8.56165 135 8.56165V8.56165Z" fill="#E8110E"/>
<path d="M135 18.5616C136.187 18.5616 137.347 18.2098 138.333 17.5505C139.32 16.8912 140.089 15.9541 140.543 14.8577C140.997 13.7614 141.116 12.555 140.885 11.3911C140.653 10.2272 140.082 9.15812 139.243 8.31901C138.404 7.47989 137.334 6.90845 136.171 6.67694C135.007 6.44543 133.8 6.56425 132.704 7.01837C131.608 7.4725 130.67 8.24153 130.011 9.22823C129.352 10.2149 129 11.375 129 12.5616C129.002 14.1525 129.634 15.6777 130.759 16.8025C131.884 17.9274 133.409 18.5601 135 18.5616ZM135 8.56165C135.791 8.56165 136.564 8.79624 137.222 9.23577C137.88 9.6753 138.393 10.3 138.696 11.0309C138.998 11.7618 139.077 12.5661 138.923 13.342C138.769 14.1179 138.388 14.8307 137.828 15.3901C137.269 15.9495 136.556 16.3304 135.78 16.4848C135.004 16.6391 134.2 16.5599 133.469 16.2572C132.738 15.9544 132.114 15.4417 131.674 14.7839C131.235 14.1261 131 13.3528 131 12.5616C131 11.5008 131.421 10.4834 132.172 9.73322C132.922 8.98308 133.939 8.56165 135 8.56165V8.56165Z" fill="url(#paint2_linear_195_8116)" fill-opacity="0.4"/>
<path d="M135 20.5623C132.614 20.565 130.326 21.514 128.639 23.2013C126.952 24.8885 126.003 27.1762 126 29.5623C126 29.8275 126.105 30.0819 126.293 30.2694C126.48 30.457 126.735 30.5623 127 30.5623C127.265 30.5623 127.52 30.457 127.707 30.2694C127.895 30.0819 128 29.8275 128 29.5623C128 27.7058 128.737 25.9253 130.05 24.6126C131.363 23.2998 133.143 22.5623 135 22.5623C136.857 22.5623 138.637 23.2998 139.95 24.6126C141.263 25.9253 142 27.7058 142 29.5623C142 29.8275 142.105 30.0819 142.293 30.2694C142.48 30.457 142.735 30.5623 143 30.5623C143.265 30.5623 143.52 30.457 143.707 30.2694C143.895 30.0819 144 29.8275 144 29.5623C143.997 27.1762 143.048 24.8885 141.361 23.2013C139.674 21.514 137.386 20.565 135 20.5623V20.5623Z" fill="#E8110E"/>
<path d="M135 20.5623C132.614 20.565 130.326 21.514 128.639 23.2013C126.952 24.8885 126.003 27.1762 126 29.5623C126 29.8275 126.105 30.0819 126.293 30.2694C126.48 30.457 126.735 30.5623 127 30.5623C127.265 30.5623 127.52 30.457 127.707 30.2694C127.895 30.0819 128 29.8275 128 29.5623C128 27.7058 128.737 25.9253 130.05 24.6126C131.363 23.2998 133.143 22.5623 135 22.5623C136.857 22.5623 138.637 23.2998 139.95 24.6126C141.263 25.9253 142 27.7058 142 29.5623C142 29.8275 142.105 30.0819 142.293 30.2694C142.48 30.457 142.735 30.5623 143 30.5623C143.265 30.5623 143.52 30.457 143.707 30.2694C143.895 30.0819 144 29.8275 144 29.5623C143.997 27.1762 143.048 24.8885 141.361 23.2013C139.674 21.514 137.386 20.565 135 20.5623V20.5623Z" fill="url(#paint3_linear_195_8116)" fill-opacity="0.4"/>
</g>
<defs>
<linearGradient id="paint0_linear_195_8116" x1="117.79" y1="5.84296" x2="114.754" y2="42.1447" gradientUnits="userSpaceOnUse">
<stop offset="0.161218" stop-color="#3300FF"/>
<stop offset="1" stop-color="#BC1212"/>
</linearGradient>
<linearGradient id="paint1_linear_195_8116" x1="155.903" y1="-2.25079" x2="134.749" y2="48.802" gradientUnits="userSpaceOnUse">
<stop offset="0.161218" stop-color="#3300FF"/>
<stop offset="1" stop-color="#BC1212"/>
</linearGradient>
<linearGradient id="paint2_linear_195_8116" x1="141.968" y1="5.62415" x2="134.916" y2="22.6417" gradientUnits="userSpaceOnUse">
<stop offset="0.161218" stop-color="#3300FF"/>
<stop offset="1" stop-color="#BC1212"/>
</linearGradient>
<linearGradient id="paint3_linear_195_8116" x1="145.452" y1="19.7811" x2="141.819" y2="35.561" gradientUnits="userSpaceOnUse">
<stop offset="0.161218" stop-color="#3300FF"/>
<stop offset="1" stop-color="#BC1212"/>
</linearGradient>
<clipPath id="clip0_195_8116">
<rect width="36" height="36" fill="white" transform="translate(117 0.561707)"/>
</clipPath>
<clipPath id="clip1_195_8116">
<rect width="24" height="24" fill="white" transform="translate(123 6.56171)"/>
</clipPath>
</defs>
</svg>
