<svg width="36" height="36" viewBox="0 0 36 36" fill="none" xmlns="http://www.w3.org/2000/svg">
<g clip-path="url(#clip0_244_10228)">
<path d="M18 0C14.4399 0 10.9598 1.05568 7.99974 3.03355C5.03966 5.01141 2.73255 7.82263 1.37018 11.1117C0.00779915 14.4008 -0.348661 18.02 0.345873 21.5116C1.04041 25.0033 2.75474 28.2106 5.27209 30.7279C7.78943 33.2453 10.9967 34.9596 14.4884 35.6541C17.98 36.3487 21.5992 35.9922 24.8883 34.6298C28.1774 33.2675 30.9886 30.9604 32.9665 28.0003C34.9443 25.0402 36 21.5601 36 18C36 13.2261 34.1036 8.64773 30.7279 5.27208C27.3523 1.89642 22.7739 0 18 0V0ZM18 33C15.0333 33 12.1332 32.1203 9.66645 30.472C7.19972 28.8238 5.27713 26.4811 4.14182 23.7403C3.0065 20.9994 2.70945 17.9834 3.28823 15.0736C3.86701 12.1639 5.29562 9.49119 7.39341 7.3934C9.49119 5.29561 12.1639 3.867 15.0737 3.28822C17.9834 2.70944 20.9994 3.00649 23.7403 4.14181C26.4812 5.27712 28.8238 7.19971 30.4721 9.66645C32.1203 12.1332 33 15.0333 33 18C33 21.9782 31.4197 25.7936 28.6066 28.6066C25.7936 31.4196 21.9783 33 18 33V33Z" fill="white"/>
<path d="M18 0C14.4399 0 10.9598 1.05568 7.99974 3.03355C5.03966 5.01141 2.73255 7.82263 1.37018 11.1117C0.00779915 14.4008 -0.348661 18.02 0.345873 21.5116C1.04041 25.0033 2.75474 28.2106 5.27209 30.7279C7.78943 33.2453 10.9967 34.9596 14.4884 35.6541C17.98 36.3487 21.5992 35.9922 24.8883 34.6298C28.1774 33.2675 30.9886 30.9604 32.9665 28.0003C34.9443 25.0402 36 21.5601 36 18C36 13.2261 34.1036 8.64773 30.7279 5.27208C27.3523 1.89642 22.7739 0 18 0V0ZM18 33C15.0333 33 12.1332 32.1203 9.66645 30.472C7.19972 28.8238 5.27713 26.4811 4.14182 23.7403C3.0065 20.9994 2.70945 17.9834 3.28823 15.0736C3.86701 12.1639 5.29562 9.49119 7.39341 7.3934C9.49119 5.29561 12.1639 3.867 15.0737 3.28822C17.9834 2.70944 20.9994 3.00649 23.7403 4.14181C26.4812 5.27712 28.8238 7.19971 30.4721 9.66645C32.1203 12.1332 33 15.0333 33 18C33 21.9782 31.4197 25.7936 28.6066 28.6066C25.7936 31.4196 21.9783 33 18 33V33Z" fill="url(#paint0_linear_244_10228)" fill-opacity="0.4"/>
</g>
<g clip-path="url(#clip1_244_10228)">
<path d="M18 17.9999C19.1867 17.9999 20.3467 17.648 21.3334 16.9888C22.3201 16.3295 23.0892 15.3924 23.5433 14.296C23.9974 13.1997 24.1162 11.9933 23.8847 10.8294C23.6532 9.66551 23.0818 8.59642 22.2426 7.7573C21.4035 6.91819 20.3344 6.34674 19.1705 6.11523C18.0067 5.88372 16.8003 6.00254 15.7039 6.45666C14.6075 6.91079 13.6705 7.67983 13.0112 8.66652C12.3519 9.65322 12 10.8133 12 11.9999C12.0016 13.5908 12.6342 15.116 13.7591 16.2408C14.884 17.3657 16.4092 17.9984 18 17.9999ZM18 7.99994C18.7911 7.99994 19.5645 8.23454 20.2223 8.67406C20.8801 9.11359 21.3928 9.7383 21.6955 10.4692C21.9983 11.2001 22.0775 12.0044 21.9231 12.7803C21.7688 13.5562 21.3878 14.269 20.8284 14.8284C20.269 15.3878 19.5563 15.7687 18.7804 15.9231C18.0044 16.0774 17.2002 15.9982 16.4693 15.6955C15.7384 15.3927 15.1136 14.88 14.6741 14.2222C14.2346 13.5644 14 12.7911 14 11.9999C14 10.9391 14.4214 9.92166 15.1716 9.17151C15.9217 8.42137 16.9391 7.99994 18 7.99994V7.99994Z" fill="white"/>
<path d="M18 17.9999C19.1867 17.9999 20.3467 17.648 21.3334 16.9888C22.3201 16.3295 23.0892 15.3924 23.5433 14.296C23.9974 13.1997 24.1162 11.9933 23.8847 10.8294C23.6532 9.66551 23.0818 8.59642 22.2426 7.7573C21.4035 6.91819 20.3344 6.34674 19.1705 6.11523C18.0067 5.88372 16.8003 6.00254 15.7039 6.45666C14.6075 6.91079 13.6705 7.67983 13.0112 8.66652C12.3519 9.65322 12 10.8133 12 11.9999C12.0016 13.5908 12.6342 15.116 13.7591 16.2408C14.884 17.3657 16.4092 17.9984 18 17.9999ZM18 7.99994C18.7911 7.99994 19.5645 8.23454 20.2223 8.67406C20.8801 9.11359 21.3928 9.7383 21.6955 10.4692C21.9983 11.2001 22.0775 12.0044 21.9231 12.7803C21.7688 13.5562 21.3878 14.269 20.8284 14.8284C20.269 15.3878 19.5563 15.7687 18.7804 15.9231C18.0044 16.0774 17.2002 15.9982 16.4693 15.6955C15.7384 15.3927 15.1136 14.88 14.6741 14.2222C14.2346 13.5644 14 12.7911 14 11.9999C14 10.9391 14.4214 9.92166 15.1716 9.17151C15.9217 8.42137 16.9391 7.99994 18 7.99994V7.99994Z" fill="url(#paint1_linear_244_10228)" fill-opacity="0.4"/>
<path d="M18 20.0006C15.6139 20.0033 13.3262 20.9523 11.639 22.6396C9.95171 24.3268 9.00265 26.6145 9 29.0006C9 29.2658 9.10536 29.5202 9.29289 29.7077C9.48043 29.8953 9.73478 30.0006 10 30.0006C10.2652 30.0006 10.5196 29.8953 10.7071 29.7077C10.8946 29.5202 11 29.2658 11 29.0006C11 27.1441 11.7375 25.3636 13.0503 24.0509C14.363 22.7381 16.1435 22.0006 18 22.0006C19.8565 22.0006 21.637 22.7381 22.9497 24.0509C24.2625 25.3636 25 27.1441 25 29.0006C25 29.2658 25.1054 29.5202 25.2929 29.7077C25.4804 29.8953 25.7348 30.0006 26 30.0006C26.2652 30.0006 26.5196 29.8953 26.7071 29.7077C26.8946 29.5202 27 29.2658 27 29.0006C26.9974 26.6145 26.0483 24.3268 24.361 22.6396C22.6738 20.9523 20.3861 20.0033 18 20.0006V20.0006Z" fill="white"/>
<path d="M18 20.0006C15.6139 20.0033 13.3262 20.9523 11.639 22.6396C9.95171 24.3268 9.00265 26.6145 9 29.0006C9 29.2658 9.10536 29.5202 9.29289 29.7077C9.48043 29.8953 9.73478 30.0006 10 30.0006C10.2652 30.0006 10.5196 29.8953 10.7071 29.7077C10.8946 29.5202 11 29.2658 11 29.0006C11 27.1441 11.7375 25.3636 13.0503 24.0509C14.363 22.7381 16.1435 22.0006 18 22.0006C19.8565 22.0006 21.637 22.7381 22.9497 24.0509C24.2625 25.3636 25 27.1441 25 29.0006C25 29.2658 25.1054 29.5202 25.2929 29.7077C25.4804 29.8953 25.7348 30.0006 26 30.0006C26.2652 30.0006 26.5196 29.8953 26.7071 29.7077C26.8946 29.5202 27 29.2658 27 29.0006C26.9974 26.6145 26.0483 24.3268 24.361 22.6396C22.6738 20.9523 20.3861 20.0033 18 20.0006V20.0006Z" fill="url(#paint2_linear_244_10228)" fill-opacity="0.4"/>
</g>
<defs>
<linearGradient id="paint0_linear_244_10228" x1="38.9032" y1="-2.8125" x2="17.7489" y2="48.2403" gradientUnits="userSpaceOnUse">
<stop offset="0.161218" stop-color="white"/>
<stop offset="1" stop-color="white"/>
</linearGradient>
<linearGradient id="paint1_linear_244_10228" x1="24.9677" y1="5.06244" x2="17.9163" y2="22.08" gradientUnits="userSpaceOnUse">
<stop offset="0.161218" stop-color="white"/>
<stop offset="1" stop-color="white"/>
</linearGradient>
<linearGradient id="paint2_linear_244_10228" x1="28.4516" y1="19.2194" x2="24.819" y2="34.9993" gradientUnits="userSpaceOnUse">
<stop offset="0.161218" stop-color="white"/>
<stop offset="1" stop-color="white"/>
</linearGradient>
<clipPath id="clip0_244_10228">
<rect width="36" height="36" fill="white"/>
</clipPath>
<clipPath id="clip1_244_10228">
<rect width="24" height="24" fill="white" transform="translate(6 6)"/>
</clipPath>
</defs>
</svg>
