<svg width="27" height="27" viewBox="0 0 27 27" fill="none" xmlns="http://www.w3.org/2000/svg">
<g clip-path="url(#clip0_244_10116)">
<path d="M26.6764 24.8865L20.0939 18.2838C21.8877 16.0832 22.7697 13.2752 22.5574 10.4406C22.345 7.60603 21.0547 4.96174 18.9532 3.05469C16.8517 1.14765 14.0999 0.123759 11.2669 0.19481C8.43392 0.265862 5.73654 1.42642 3.73269 3.43642C1.72885 5.44643 0.571847 8.1521 0.501013 10.9938C0.43018 13.8355 1.45093 16.5958 3.35213 18.7037C5.25333 20.8117 7.88952 22.106 10.7154 22.319C13.5413 22.5319 16.3407 21.6473 18.5346 19.848L25.1171 26.4507C25.3251 26.6522 25.6036 26.7637 25.8928 26.7611C26.1819 26.7586 26.4585 26.6423 26.663 26.4372C26.8675 26.2321 26.9834 25.9547 26.9859 25.6646C26.9885 25.3746 26.8773 25.0952 26.6764 24.8865ZM11.5606 20.1378C9.81577 20.1378 8.11008 19.6188 6.65927 18.6464C5.20846 17.674 4.0777 16.2919 3.40996 14.6749C2.74223 13.0579 2.56752 11.2786 2.90793 9.56201C3.24834 7.8454 4.08857 6.2686 5.32238 5.031C6.55619 3.7934 8.12816 2.95058 9.83951 2.60912C11.5509 2.26767 13.3247 2.44292 14.9368 3.1127C16.5488 3.78249 17.9267 4.91673 18.8961 6.372C19.8654 7.82726 20.3829 9.53819 20.3829 11.2884C20.3802 13.6346 19.4499 15.8839 17.796 17.5429C16.1421 19.202 13.8996 20.1351 11.5606 20.1378Z" fill="white"/>
</g>
<defs>
<clipPath id="clip0_244_10116">
<rect width="26.4667" height="26.548" fill="white" transform="translate(0.533203 0.225983)"/>
</clipPath>
</defs>
</svg>
