<svg width="37" height="25" viewBox="0 0 37 25" fill="none" xmlns="http://www.w3.org/2000/svg">
<g clip-path="url(#clip0_235_6281)">
<path d="M6.94997 6.60233C7.13733 6.78858 7.39079 6.89312 7.65497 6.89312C7.91916 6.89312 8.17261 6.78858 8.35997 6.60233L11.95 2.97232V23.3923C11.95 23.6576 12.0553 23.9119 12.2429 24.0995C12.4304 24.287 12.6848 24.3923 12.95 24.3923C13.2152 24.3923 13.4695 24.287 13.6571 24.0995C13.8446 23.9119 13.95 23.6576 13.95 23.3923V2.98232L17.57 6.60233C17.6629 6.69605 17.7735 6.77045 17.8954 6.82122C18.0173 6.87199 18.148 6.89812 18.28 6.89812C18.412 6.89812 18.5427 6.87199 18.6645 6.82122C18.7864 6.77045 18.897 6.69605 18.99 6.60233C19.1762 6.41496 19.2808 6.16151 19.2808 5.89733C19.2808 5.63314 19.1762 5.37969 18.99 5.19232L15.08 1.27232C14.5175 0.710517 13.755 0.394958 12.96 0.394958C12.165 0.394958 11.4025 0.710517 10.84 1.27232L6.94997 5.19232C6.76372 5.37969 6.65918 5.63314 6.65918 5.89733C6.65918 6.16151 6.76372 6.41496 6.94997 6.60233Z" fill="white"/>
</g>
<g clip-path="url(#clip1_235_6281)">
<path d="M30.9494 18.1823C30.7621 17.9961 30.5086 17.8915 30.2444 17.8915C29.9803 17.8915 29.7268 17.9961 29.5394 18.1823L25.9494 21.8123L25.9494 1.39232C25.9494 1.12711 25.8441 0.872749 25.6565 0.685213C25.469 0.497677 25.2147 0.392321 24.9494 0.392321C24.6842 0.392321 24.4299 0.497677 24.2423 0.685213C24.0548 0.872749 23.9494 1.12711 23.9494 1.39232L23.9494 21.8023L20.3294 18.1823C20.2365 18.0886 20.1259 18.0142 20.004 17.9635C19.8822 17.9127 19.7515 17.8865 19.6194 17.8865C19.4874 17.8865 19.3567 17.9127 19.2349 17.9635C19.113 18.0142 19.0024 18.0886 18.9094 18.1823C18.7232 18.3697 18.6186 18.6232 18.6186 18.8873C18.6186 19.1515 18.7232 19.405 18.9094 19.5923L22.8194 23.5123C23.3819 24.0742 24.1444 24.3897 24.9394 24.3897C25.7344 24.3897 26.4969 24.0742 27.0594 23.5123L30.9494 19.5923C31.1357 19.405 31.2402 19.1515 31.2402 18.8873C31.2402 18.6232 31.1357 18.3697 30.9494 18.1823Z" fill="white"/>
</g>
<defs>
<clipPath id="clip0_235_6281">
<rect width="24" height="24" fill="white" transform="translate(0.949707 0.392334)"/>
</clipPath>
<clipPath id="clip1_235_6281">
<rect width="24" height="24" fill="white" transform="matrix(-1 0 0 -1 36.9497 24.3923)"/>
</clipPath>
</defs>
</svg>
